<mxfile host="65bd71144e">
    <diagram id="NCY0NqN4AzRq48ZSCzrr" name="ProcessDiagram">
        <mxGraphModel dx="693" dy="256" grid="1" gridSize="10" guides="1" tooltips="1" connect="1" arrows="1" fold="1" page="1" pageScale="1" pageWidth="850" pageHeight="1100" math="0" shadow="0">
            <root>
                <mxCell id="9_HwT7c_GWtdonz1elzn-0"/>
                <mxCell id="9_HwT7c_GWtdonz1elzn-1" parent="9_HwT7c_GWtdonz1elzn-0"/>
                <mxCell id="9_HwT7c_GWtdonz1elzn-12" style="edgeStyle=none;html=1;exitX=0.5;exitY=1;exitDx=0;exitDy=0;entryX=0.5;entryY=0;entryDx=0;entryDy=0;" parent="9_HwT7c_GWtdonz1elzn-1" source="9_HwT7c_GWtdonz1elzn-2" target="9_HwT7c_GWtdonz1elzn-5" edge="1">
                    <mxGeometry relative="1" as="geometry"/>
                </mxCell>
                <mxCell id="9_HwT7c_GWtdonz1elzn-2" value="Start Script" style="rounded=1;whiteSpace=wrap;html=1;" parent="9_HwT7c_GWtdonz1elzn-1" vertex="1">
                    <mxGeometry x="270" y="20" width="120" height="60" as="geometry"/>
                </mxCell>
                <mxCell id="9_HwT7c_GWtdonz1elzn-5" value="Read Configuration with InputDirectory setup per directory/KeyWord" style="rounded=1;whiteSpace=wrap;html=1;" parent="9_HwT7c_GWtdonz1elzn-1" vertex="1">
                    <mxGeometry x="270" y="120" width="120" height="60" as="geometry"/>
                </mxCell>
                <mxCell id="9_HwT7c_GWtdonz1elzn-6" value="Look for files in directory" style="rounded=1;whiteSpace=wrap;html=1;" parent="9_HwT7c_GWtdonz1elzn-1" vertex="1">
                    <mxGeometry x="270" y="220" width="120" height="60" as="geometry"/>
                </mxCell>
                <mxCell id="9_HwT7c_GWtdonz1elzn-7" value="Is File in Direcotry" style="rhombus;whiteSpace=wrap;html=1;" parent="9_HwT7c_GWtdonz1elzn-1" vertex="1">
                    <mxGeometry x="290" y="320" width="80" height="80" as="geometry"/>
                </mxCell>
                <mxCell id="9_HwT7c_GWtdonz1elzn-9" value="There are no files - end script or check in next directory" style="rounded=1;whiteSpace=wrap;html=1;" parent="9_HwT7c_GWtdonz1elzn-1" vertex="1">
                    <mxGeometry x="400" y="400" width="120" height="60" as="geometry"/>
                </mxCell>
                <mxCell id="9_HwT7c_GWtdonz1elzn-10" value="Look for paprticular key word" style="rounded=1;whiteSpace=wrap;html=1;" parent="9_HwT7c_GWtdonz1elzn-1" vertex="1">
                    <mxGeometry x="160" y="400" width="120" height="60" as="geometry"/>
                </mxCell>
                <mxCell id="9_HwT7c_GWtdonz1elzn-15" style="edgeStyle=none;html=1;exitX=0.5;exitY=1;exitDx=0;exitDy=0;entryX=0.5;entryY=0;entryDx=0;entryDy=0;" parent="9_HwT7c_GWtdonz1elzn-1" edge="1">
                    <mxGeometry relative="1" as="geometry">
                        <mxPoint x="329.5" y="180" as="sourcePoint"/>
                        <mxPoint x="329.5" y="220" as="targetPoint"/>
                    </mxGeometry>
                </mxCell>
                <mxCell id="9_HwT7c_GWtdonz1elzn-16" style="edgeStyle=none;html=1;exitX=0.5;exitY=1;exitDx=0;exitDy=0;entryX=0.5;entryY=0;entryDx=0;entryDy=0;" parent="9_HwT7c_GWtdonz1elzn-1" edge="1">
                    <mxGeometry relative="1" as="geometry">
                        <mxPoint x="329.5" y="280" as="sourcePoint"/>
                        <mxPoint x="329.5" y="320" as="targetPoint"/>
                    </mxGeometry>
                </mxCell>
                <mxCell id="9_HwT7c_GWtdonz1elzn-17" style="edgeStyle=none;html=1;exitX=1;exitY=0.5;exitDx=0;exitDy=0;entryX=0.5;entryY=0;entryDx=0;entryDy=0;" parent="9_HwT7c_GWtdonz1elzn-1" source="9_HwT7c_GWtdonz1elzn-7" target="9_HwT7c_GWtdonz1elzn-9" edge="1">
                    <mxGeometry relative="1" as="geometry">
                        <mxPoint x="339.5" y="290" as="sourcePoint"/>
                        <mxPoint x="339.5" y="330" as="targetPoint"/>
                        <Array as="points">
                            <mxPoint x="460" y="360"/>
                        </Array>
                    </mxGeometry>
                </mxCell>
                <mxCell id="9_HwT7c_GWtdonz1elzn-18" style="edgeStyle=none;html=1;exitX=0;exitY=0.5;exitDx=0;exitDy=0;" parent="9_HwT7c_GWtdonz1elzn-1" source="9_HwT7c_GWtdonz1elzn-7" target="9_HwT7c_GWtdonz1elzn-10" edge="1">
                    <mxGeometry relative="1" as="geometry">
                        <mxPoint x="380" y="370" as="sourcePoint"/>
                        <mxPoint x="470" y="410" as="targetPoint"/>
                        <Array as="points">
                            <mxPoint x="220" y="360"/>
                        </Array>
                    </mxGeometry>
                </mxCell>
                <mxCell id="9_HwT7c_GWtdonz1elzn-19" value="No" style="text;html=1;strokeColor=none;fillColor=none;align=center;verticalAlign=middle;whiteSpace=wrap;rounded=0;" parent="9_HwT7c_GWtdonz1elzn-1" vertex="1">
                    <mxGeometry x="390" y="320" width="60" height="30" as="geometry"/>
                </mxCell>
                <mxCell id="9_HwT7c_GWtdonz1elzn-20" value="Yes" style="text;html=1;strokeColor=none;fillColor=none;align=center;verticalAlign=middle;whiteSpace=wrap;rounded=0;" parent="9_HwT7c_GWtdonz1elzn-1" vertex="1">
                    <mxGeometry x="220" y="320" width="60" height="30" as="geometry"/>
                </mxCell>
                <mxCell id="9_HwT7c_GWtdonz1elzn-21" value="Is Keyword found" style="rhombus;whiteSpace=wrap;html=1;" parent="9_HwT7c_GWtdonz1elzn-1" vertex="1">
                    <mxGeometry x="180" y="500" width="80" height="80" as="geometry"/>
                </mxCell>
                <mxCell id="9_HwT7c_GWtdonz1elzn-22" style="edgeStyle=none;html=1;exitX=0.5;exitY=1;exitDx=0;exitDy=0;entryX=0.5;entryY=0;entryDx=0;entryDy=0;" parent="9_HwT7c_GWtdonz1elzn-1" edge="1">
                    <mxGeometry relative="1" as="geometry">
                        <mxPoint x="219" y="460" as="sourcePoint"/>
                        <mxPoint x="219" y="500" as="targetPoint"/>
                    </mxGeometry>
                </mxCell>
                <mxCell id="9_HwT7c_GWtdonz1elzn-24" style="edgeStyle=none;html=1;exitX=1;exitY=0.5;exitDx=0;exitDy=0;entryX=0.5;entryY=0;entryDx=0;entryDy=0;" parent="9_HwT7c_GWtdonz1elzn-1" edge="1">
                    <mxGeometry relative="1" as="geometry">
                        <mxPoint x="260" y="540" as="sourcePoint"/>
                        <mxPoint x="350" y="580" as="targetPoint"/>
                        <Array as="points">
                            <mxPoint x="350" y="540"/>
                        </Array>
                    </mxGeometry>
                </mxCell>
                <mxCell id="9_HwT7c_GWtdonz1elzn-25" style="edgeStyle=none;html=1;exitX=0;exitY=0.5;exitDx=0;exitDy=0;" parent="9_HwT7c_GWtdonz1elzn-1" edge="1">
                    <mxGeometry relative="1" as="geometry">
                        <mxPoint x="180" y="540" as="sourcePoint"/>
                        <mxPoint x="110" y="580" as="targetPoint"/>
                        <Array as="points">
                            <mxPoint x="110" y="540"/>
                        </Array>
                    </mxGeometry>
                </mxCell>
                <mxCell id="9_HwT7c_GWtdonz1elzn-26" value="No" style="text;html=1;strokeColor=none;fillColor=none;align=center;verticalAlign=middle;whiteSpace=wrap;rounded=0;" parent="9_HwT7c_GWtdonz1elzn-1" vertex="1">
                    <mxGeometry x="270" y="500" width="60" height="30" as="geometry"/>
                </mxCell>
                <mxCell id="9_HwT7c_GWtdonz1elzn-28" value="Yes" style="text;html=1;strokeColor=none;fillColor=none;align=center;verticalAlign=middle;whiteSpace=wrap;rounded=0;" parent="9_HwT7c_GWtdonz1elzn-1" vertex="1">
                    <mxGeometry x="120" y="950" width="60" height="30" as="geometry"/>
                </mxCell>
                <mxCell id="9_HwT7c_GWtdonz1elzn-30" value="Use configuration assign to input path only" style="rounded=1;whiteSpace=wrap;html=1;" parent="9_HwT7c_GWtdonz1elzn-1" vertex="1">
                    <mxGeometry x="290" y="580" width="120" height="60" as="geometry"/>
                </mxCell>
                <mxCell id="9_HwT7c_GWtdonz1elzn-31" value="Use configuration assigned to keyword" style="rounded=1;whiteSpace=wrap;html=1;" parent="9_HwT7c_GWtdonz1elzn-1" vertex="1">
                    <mxGeometry x="50" y="580" width="120" height="60" as="geometry"/>
                </mxCell>
                <mxCell id="9_HwT7c_GWtdonz1elzn-41" value="" style="edgeStyle=none;html=1;" parent="9_HwT7c_GWtdonz1elzn-1" source="9_HwT7c_GWtdonz1elzn-32" target="9_HwT7c_GWtdonz1elzn-40" edge="1">
                    <mxGeometry relative="1" as="geometry"/>
                </mxCell>
                <mxCell id="9_HwT7c_GWtdonz1elzn-32" value="Read file according to configuration found" style="rounded=1;whiteSpace=wrap;html=1;" parent="9_HwT7c_GWtdonz1elzn-1" vertex="1">
                    <mxGeometry x="160" y="680" width="120" height="60" as="geometry"/>
                </mxCell>
                <mxCell id="9_HwT7c_GWtdonz1elzn-33" style="edgeStyle=none;html=1;exitX=0.5;exitY=1;exitDx=0;exitDy=0;entryX=0.5;entryY=0;entryDx=0;entryDy=0;" parent="9_HwT7c_GWtdonz1elzn-1" source="9_HwT7c_GWtdonz1elzn-31" target="9_HwT7c_GWtdonz1elzn-32" edge="1">
                    <mxGeometry relative="1" as="geometry">
                        <mxPoint x="190" y="550" as="sourcePoint"/>
                        <mxPoint x="120" y="590" as="targetPoint"/>
                        <Array as="points">
                            <mxPoint x="110" y="660"/>
                            <mxPoint x="220" y="660"/>
                        </Array>
                    </mxGeometry>
                </mxCell>
                <mxCell id="9_HwT7c_GWtdonz1elzn-34" style="edgeStyle=none;html=1;exitX=0.5;exitY=1;exitDx=0;exitDy=0;entryX=0.5;entryY=0;entryDx=0;entryDy=0;" parent="9_HwT7c_GWtdonz1elzn-1" target="9_HwT7c_GWtdonz1elzn-32" edge="1">
                    <mxGeometry relative="1" as="geometry">
                        <mxPoint x="350" y="640" as="sourcePoint"/>
                        <mxPoint x="460" y="680" as="targetPoint"/>
                        <Array as="points">
                            <mxPoint x="350" y="660"/>
                            <mxPoint x="220" y="660"/>
                        </Array>
                    </mxGeometry>
                </mxCell>
                <mxCell id="9_HwT7c_GWtdonz1elzn-44" value="" style="edgeStyle=none;html=1;" parent="9_HwT7c_GWtdonz1elzn-1" source="9_HwT7c_GWtdonz1elzn-40" target="9_HwT7c_GWtdonz1elzn-43" edge="1">
                    <mxGeometry relative="1" as="geometry"/>
                </mxCell>
                <mxCell id="9_HwT7c_GWtdonz1elzn-40" value="Validate the file format per line" style="whiteSpace=wrap;html=1;rounded=1;" parent="9_HwT7c_GWtdonz1elzn-1" vertex="1">
                    <mxGeometry x="160" y="820" width="120" height="60" as="geometry"/>
                </mxCell>
                <mxCell id="9_HwT7c_GWtdonz1elzn-46" value="" style="edgeStyle=none;html=1;" parent="9_HwT7c_GWtdonz1elzn-1" source="9_HwT7c_GWtdonz1elzn-43" target="9_HwT7c_GWtdonz1elzn-45" edge="1">
                    <mxGeometry relative="1" as="geometry"/>
                </mxCell>
                <mxCell id="9_HwT7c_GWtdonz1elzn-48" value="" style="edgeStyle=none;html=1;" parent="9_HwT7c_GWtdonz1elzn-1" source="9_HwT7c_GWtdonz1elzn-43" target="9_HwT7c_GWtdonz1elzn-47" edge="1">
                    <mxGeometry relative="1" as="geometry"/>
                </mxCell>
                <mxCell id="9_HwT7c_GWtdonz1elzn-43" value="Is line record validated correctly" style="rhombus;whiteSpace=wrap;html=1;rounded=1;" parent="9_HwT7c_GWtdonz1elzn-1" vertex="1">
                    <mxGeometry x="180" y="950" width="80" height="80" as="geometry"/>
                </mxCell>
                <mxCell id="9_HwT7c_GWtdonz1elzn-51" value="" style="edgeStyle=none;html=1;entryX=0.5;entryY=0;entryDx=0;entryDy=0;" parent="9_HwT7c_GWtdonz1elzn-1" source="9_HwT7c_GWtdonz1elzn-45" target="9_HwT7c_GWtdonz1elzn-50" edge="1">
                    <mxGeometry relative="1" as="geometry"/>
                </mxCell>
                <mxCell id="9_HwT7c_GWtdonz1elzn-45" value="Flag record as bad" style="rounded=1;whiteSpace=wrap;html=1;" parent="9_HwT7c_GWtdonz1elzn-1" vertex="1">
                    <mxGeometry x="320" y="960" width="120" height="60" as="geometry"/>
                </mxCell>
                <mxCell id="9_HwT7c_GWtdonz1elzn-47" value="Flag record as good" style="rounded=1;whiteSpace=wrap;html=1;" parent="9_HwT7c_GWtdonz1elzn-1" vertex="1">
                    <mxGeometry y="960" width="120" height="60" as="geometry"/>
                </mxCell>
                <mxCell id="9_HwT7c_GWtdonz1elzn-49" value="No" style="text;html=1;strokeColor=none;fillColor=none;align=center;verticalAlign=middle;whiteSpace=wrap;rounded=0;" parent="9_HwT7c_GWtdonz1elzn-1" vertex="1">
                    <mxGeometry x="250" y="950" width="60" height="30" as="geometry"/>
                </mxCell>
                <mxCell id="9_HwT7c_GWtdonz1elzn-50" value="Map &amp;amp; Validate the fields to predefined data model" style="whiteSpace=wrap;html=1;rounded=1;" parent="9_HwT7c_GWtdonz1elzn-1" vertex="1">
                    <mxGeometry x="160" y="1120" width="120" height="60" as="geometry"/>
                </mxCell>
                <mxCell id="9_HwT7c_GWtdonz1elzn-52" value="" style="edgeStyle=none;html=1;exitX=0.5;exitY=1;exitDx=0;exitDy=0;entryX=0.5;entryY=0;entryDx=0;entryDy=0;" parent="9_HwT7c_GWtdonz1elzn-1" source="9_HwT7c_GWtdonz1elzn-47" target="9_HwT7c_GWtdonz1elzn-50" edge="1">
                    <mxGeometry relative="1" as="geometry">
                        <mxPoint x="360" y="1030" as="sourcePoint"/>
                        <mxPoint x="260" y="1130" as="targetPoint"/>
                    </mxGeometry>
                </mxCell>
                <mxCell id="9_HwT7c_GWtdonz1elzn-56" value="" style="edgeStyle=none;html=1;" parent="9_HwT7c_GWtdonz1elzn-1" source="9_HwT7c_GWtdonz1elzn-53" target="9_HwT7c_GWtdonz1elzn-55" edge="1">
                    <mxGeometry relative="1" as="geometry"/>
                </mxCell>
                <mxCell id="9_HwT7c_GWtdonz1elzn-58" value="" style="edgeStyle=none;html=1;" parent="9_HwT7c_GWtdonz1elzn-1" source="9_HwT7c_GWtdonz1elzn-53" target="9_HwT7c_GWtdonz1elzn-57" edge="1">
                    <mxGeometry relative="1" as="geometry"/>
                </mxCell>
                <mxCell id="9_HwT7c_GWtdonz1elzn-53" value="Is line record validated correctly" style="rhombus;whiteSpace=wrap;html=1;rounded=1;" parent="9_HwT7c_GWtdonz1elzn-1" vertex="1">
                    <mxGeometry x="180" y="1230" width="80" height="80" as="geometry"/>
                </mxCell>
                <mxCell id="9_HwT7c_GWtdonz1elzn-54" value="" style="edgeStyle=none;html=1;exitX=0.5;exitY=1;exitDx=0;exitDy=0;" parent="9_HwT7c_GWtdonz1elzn-1" source="9_HwT7c_GWtdonz1elzn-50" target="9_HwT7c_GWtdonz1elzn-53" edge="1">
                    <mxGeometry relative="1" as="geometry">
                        <mxPoint x="270" y="1000" as="sourcePoint"/>
                        <mxPoint x="330" y="1000" as="targetPoint"/>
                    </mxGeometry>
                </mxCell>
                <mxCell id="9_HwT7c_GWtdonz1elzn-63" value="" style="edgeStyle=none;html=1;entryX=0.5;entryY=0;entryDx=0;entryDy=0;" parent="9_HwT7c_GWtdonz1elzn-1" source="9_HwT7c_GWtdonz1elzn-55" target="9_HwT7c_GWtdonz1elzn-62" edge="1">
                    <mxGeometry relative="1" as="geometry"/>
                </mxCell>
                <mxCell id="9_HwT7c_GWtdonz1elzn-55" value="Flag record as bad" style="whiteSpace=wrap;html=1;rounded=1;" parent="9_HwT7c_GWtdonz1elzn-1" vertex="1">
                    <mxGeometry x="320" y="1240" width="120" height="60" as="geometry"/>
                </mxCell>
                <mxCell id="9_HwT7c_GWtdonz1elzn-57" value="Flag record as good" style="whiteSpace=wrap;html=1;rounded=1;" parent="9_HwT7c_GWtdonz1elzn-1" vertex="1">
                    <mxGeometry y="1240" width="120" height="60" as="geometry"/>
                </mxCell>
                <mxCell id="9_HwT7c_GWtdonz1elzn-59" value="Yes" style="text;html=1;strokeColor=none;fillColor=none;align=center;verticalAlign=middle;whiteSpace=wrap;rounded=0;" parent="9_HwT7c_GWtdonz1elzn-1" vertex="1">
                    <mxGeometry x="130" y="1230" width="60" height="30" as="geometry"/>
                </mxCell>
                <mxCell id="9_HwT7c_GWtdonz1elzn-60" value="No" style="text;html=1;strokeColor=none;fillColor=none;align=center;verticalAlign=middle;whiteSpace=wrap;rounded=0;" parent="9_HwT7c_GWtdonz1elzn-1" vertex="1">
                    <mxGeometry x="260" y="1230" width="60" height="30" as="geometry"/>
                </mxCell>
                <mxCell id="9_HwT7c_GWtdonz1elzn-66" value="" style="edgeStyle=none;html=1;" parent="9_HwT7c_GWtdonz1elzn-1" source="9_HwT7c_GWtdonz1elzn-62" target="9_HwT7c_GWtdonz1elzn-65" edge="1">
                    <mxGeometry relative="1" as="geometry"/>
                </mxCell>
                <mxCell id="9_HwT7c_GWtdonz1elzn-62" value="Read supplemental file" style="whiteSpace=wrap;html=1;rounded=1;" parent="9_HwT7c_GWtdonz1elzn-1" vertex="1">
                    <mxGeometry x="160" y="1390" width="120" height="60" as="geometry"/>
                </mxCell>
                <mxCell id="9_HwT7c_GWtdonz1elzn-64" value="" style="edgeStyle=none;html=1;exitX=0.75;exitY=1;exitDx=0;exitDy=0;entryX=0.5;entryY=0;entryDx=0;entryDy=0;" parent="9_HwT7c_GWtdonz1elzn-1" source="9_HwT7c_GWtdonz1elzn-57" target="9_HwT7c_GWtdonz1elzn-62" edge="1">
                    <mxGeometry relative="1" as="geometry">
                        <mxPoint x="358" y="1310" as="sourcePoint"/>
                        <mxPoint x="262" y="1400" as="targetPoint"/>
                    </mxGeometry>
                </mxCell>
                <mxCell id="9_HwT7c_GWtdonz1elzn-68" value="" style="edgeStyle=none;html=1;" parent="9_HwT7c_GWtdonz1elzn-1" source="9_HwT7c_GWtdonz1elzn-65" target="9_HwT7c_GWtdonz1elzn-67" edge="1">
                    <mxGeometry relative="1" as="geometry"/>
                </mxCell>
                <mxCell id="9_HwT7c_GWtdonz1elzn-65" value="Validate supplemental file" style="whiteSpace=wrap;html=1;rounded=1;" parent="9_HwT7c_GWtdonz1elzn-1" vertex="1">
                    <mxGeometry x="160" y="1530" width="120" height="60" as="geometry"/>
                </mxCell>
                <mxCell id="9_HwT7c_GWtdonz1elzn-70" value="" style="edgeStyle=none;html=1;" parent="9_HwT7c_GWtdonz1elzn-1" source="9_HwT7c_GWtdonz1elzn-67" target="9_HwT7c_GWtdonz1elzn-69" edge="1">
                    <mxGeometry relative="1" as="geometry"/>
                </mxCell>
                <mxCell id="9_HwT7c_GWtdonz1elzn-67" value="Match records" style="whiteSpace=wrap;html=1;rounded=1;" parent="9_HwT7c_GWtdonz1elzn-1" vertex="1">
                    <mxGeometry x="160" y="1670" width="120" height="60" as="geometry"/>
                </mxCell>
                <mxCell id="9_HwT7c_GWtdonz1elzn-72" value="" style="edgeStyle=none;html=1;" parent="9_HwT7c_GWtdonz1elzn-1" source="9_HwT7c_GWtdonz1elzn-69" target="9_HwT7c_GWtdonz1elzn-71" edge="1">
                    <mxGeometry relative="1" as="geometry"/>
                </mxCell>
                <mxCell id="9_HwT7c_GWtdonz1elzn-69" value="Merge fields" style="whiteSpace=wrap;html=1;rounded=1;" parent="9_HwT7c_GWtdonz1elzn-1" vertex="1">
                    <mxGeometry x="160" y="1810" width="120" height="60" as="geometry"/>
                </mxCell>
                <mxCell id="9_HwT7c_GWtdonz1elzn-74" value="" style="edgeStyle=none;html=1;" parent="9_HwT7c_GWtdonz1elzn-1" source="9_HwT7c_GWtdonz1elzn-71" target="9_HwT7c_GWtdonz1elzn-73" edge="1">
                    <mxGeometry relative="1" as="geometry"/>
                </mxCell>
                <mxCell id="9_HwT7c_GWtdonz1elzn-71" value="Read output configuration" style="whiteSpace=wrap;html=1;rounded=1;" parent="9_HwT7c_GWtdonz1elzn-1" vertex="1">
                    <mxGeometry x="160" y="1950" width="120" height="60" as="geometry"/>
                </mxCell>
                <mxCell id="9_HwT7c_GWtdonz1elzn-76" value="" style="edgeStyle=none;html=1;" parent="9_HwT7c_GWtdonz1elzn-1" source="9_HwT7c_GWtdonz1elzn-73" target="9_HwT7c_GWtdonz1elzn-75" edge="1">
                    <mxGeometry relative="1" as="geometry"/>
                </mxCell>
                <mxCell id="9_HwT7c_GWtdonz1elzn-73" value="Create outputs" style="whiteSpace=wrap;html=1;rounded=1;" parent="9_HwT7c_GWtdonz1elzn-1" vertex="1">
                    <mxGeometry x="160" y="2090" width="120" height="60" as="geometry"/>
                </mxCell>
                <mxCell id="9_HwT7c_GWtdonz1elzn-75" value="End Script / Start again" style="whiteSpace=wrap;html=1;rounded=1;" parent="9_HwT7c_GWtdonz1elzn-1" vertex="1">
                    <mxGeometry x="160" y="2230" width="120" height="60" as="geometry"/>
                </mxCell>
            </root>
        </mxGraphModel>
    </diagram>
    <diagram id="AbKVXGWIqVXGzexcaHwD" name="Page-7">
        <mxGraphModel dx="693" dy="256" grid="1" gridSize="10" guides="1" tooltips="1" connect="1" arrows="1" fold="1" page="1" pageScale="1" pageWidth="850" pageHeight="1100" math="0" shadow="0">
            <root>
                <mxCell id="uMzlelHCL60OWkZZ1tz2-0"/>
                <mxCell id="uMzlelHCL60OWkZZ1tz2-1" parent="uMzlelHCL60OWkZZ1tz2-0"/>
                <mxCell id="uMzlelHCL60OWkZZ1tz2-4" value="" style="edgeStyle=none;html=1;" edge="1" parent="uMzlelHCL60OWkZZ1tz2-1" source="uMzlelHCL60OWkZZ1tz2-2" target="uMzlelHCL60OWkZZ1tz2-3">
                    <mxGeometry relative="1" as="geometry"/>
                </mxCell>
                <mxCell id="uMzlelHCL60OWkZZ1tz2-2" value="Embossing File" style="rounded=0;whiteSpace=wrap;html=1;" vertex="1" parent="uMzlelHCL60OWkZZ1tz2-1">
                    <mxGeometry x="60" y="70" width="120" height="60" as="geometry"/>
                </mxCell>
                <mxCell id="uMzlelHCL60OWkZZ1tz2-3" value="" style="whiteSpace=wrap;html=1;rounded=0;" vertex="1" parent="uMzlelHCL60OWkZZ1tz2-1">
                    <mxGeometry x="260" y="70" width="120" height="60" as="geometry"/>
                </mxCell>
            </root>
        </mxGraphModel>
    </diagram>
    <diagram id="tpH0YKKn3WYu9Lt2s4Q3" name="Simplified Diagram">
        <mxGraphModel dx="788" dy="564" grid="1" gridSize="10" guides="1" tooltips="1" connect="1" arrows="1" fold="1" page="1" pageScale="1" pageWidth="850" pageHeight="1100" math="0" shadow="0">
            <root>
                <mxCell id="qzitql9rVssALoSLBv57-0"/>
                <mxCell id="qzitql9rVssALoSLBv57-1" parent="qzitql9rVssALoSLBv57-0"/>
                <mxCell id="7" style="edgeStyle=none;html=1;exitX=1;exitY=0.5;exitDx=0;exitDy=0;entryX=0;entryY=0.5;entryDx=0;entryDy=0;" parent="qzitql9rVssALoSLBv57-1" source="0" target="2" edge="1">
                    <mxGeometry relative="1" as="geometry"/>
                </mxCell>
                <mxCell id="0" value="Iput file (csv, xml, FLR) - customer data matched ID" style="rounded=0;whiteSpace=wrap;html=1;" parent="qzitql9rVssALoSLBv57-1" vertex="1">
                    <mxGeometry x="90" y="210" width="120" height="60" as="geometry"/>
                </mxCell>
                <mxCell id="8" style="edgeStyle=none;html=1;exitX=1;exitY=0.5;exitDx=0;exitDy=0;entryX=0;entryY=0.5;entryDx=0;entryDy=0;" parent="qzitql9rVssALoSLBv57-1" source="1" target="2" edge="1">
                    <mxGeometry relative="1" as="geometry">
                        <mxPoint x="360" y="310" as="targetPoint"/>
                    </mxGeometry>
                </mxCell>
                <mxCell id="1" value="Suplemental input file (csv, xml) - shipment report tracking number - matched by ID" style="rounded=0;whiteSpace=wrap;html=1;" parent="qzitql9rVssALoSLBv57-1" vertex="1">
                    <mxGeometry x="90" y="320" width="120" height="90" as="geometry"/>
                </mxCell>
                <mxCell id="9" style="edgeStyle=none;html=1;exitX=1;exitY=0.5;exitDx=0;exitDy=0;entryX=0;entryY=0.75;entryDx=0;entryDy=0;" parent="qzitql9rVssALoSLBv57-1" source="2" target="3" edge="1">
                    <mxGeometry relative="1" as="geometry"/>
                </mxCell>
                <mxCell id="2" value="Read files, validate, put them together by matching ID, group them by colum all colums that have value XXX, group other column with YYY&amp;nbsp;" style="rounded=1;whiteSpace=wrap;html=1;" parent="qzitql9rVssALoSLBv57-1" vertex="1">
                    <mxGeometry x="350" y="240" width="120" height="140" as="geometry"/>
                </mxCell>
                <mxCell id="3" value="Spit out outputs either grouped or total" style="rounded=0;whiteSpace=wrap;html=1;" parent="qzitql9rVssALoSLBv57-1" vertex="1">
                    <mxGeometry x="560" y="190" width="120" height="60" as="geometry"/>
                </mxCell>
                <mxCell id="4" value="Ouput 2 CSV different structure -&amp;nbsp;" style="rounded=0;whiteSpace=wrap;html=1;" parent="qzitql9rVssALoSLBv57-1" vertex="1">
                    <mxGeometry x="560" y="280" width="120" height="60" as="geometry"/>
                </mxCell>
                <mxCell id="5" value="Ouptut 3 CSV different structure" style="rounded=0;whiteSpace=wrap;html=1;" parent="qzitql9rVssALoSLBv57-1" vertex="1">
                    <mxGeometry x="560" y="380" width="120" height="60" as="geometry"/>
                </mxCell>
                <mxCell id="6" value="" style="endArrow=none;html=1;entryX=0;entryY=0.5;entryDx=0;entryDy=0;exitX=1;exitY=0.5;exitDx=0;exitDy=0;" parent="qzitql9rVssALoSLBv57-1" source="2" target="5" edge="1">
                    <mxGeometry width="50" height="50" relative="1" as="geometry">
                        <mxPoint x="410" y="250" as="sourcePoint"/>
                        <mxPoint x="460" y="200" as="targetPoint"/>
                    </mxGeometry>
                </mxCell>
                <mxCell id="10" value="" style="endArrow=none;html=1;exitX=1;exitY=0.5;exitDx=0;exitDy=0;entryX=0;entryY=0.5;entryDx=0;entryDy=0;" parent="qzitql9rVssALoSLBv57-1" source="2" target="4" edge="1">
                    <mxGeometry width="50" height="50" relative="1" as="geometry">
                        <mxPoint x="480" y="320" as="sourcePoint"/>
                        <mxPoint x="550" y="320" as="targetPoint"/>
                    </mxGeometry>
                </mxCell>
                <mxCell id="11" value="Input format configuraton" style="rounded=0;whiteSpace=wrap;html=1;" parent="qzitql9rVssALoSLBv57-1" vertex="1">
                    <mxGeometry x="250" y="70" width="120" height="60" as="geometry"/>
                </mxCell>
                <mxCell id="12" value="Output format configuration" style="rounded=0;whiteSpace=wrap;html=1;" parent="qzitql9rVssALoSLBv57-1" vertex="1">
                    <mxGeometry x="310" y="120" width="120" height="60" as="geometry"/>
                </mxCell>
                <mxCell id="13" value="Validation configuration" style="rounded=0;whiteSpace=wrap;html=1;" parent="qzitql9rVssALoSLBv57-1" vertex="1">
                    <mxGeometry x="380" y="40" width="120" height="60" as="geometry"/>
                </mxCell>
                <mxCell id="14" value="Group configuration" style="rounded=0;whiteSpace=wrap;html=1;" parent="qzitql9rVssALoSLBv57-1" vertex="1">
                    <mxGeometry x="440" y="90" width="120" height="60" as="geometry"/>
                </mxCell>
            </root>
        </mxGraphModel>
    </diagram>
    <diagram name="USE_CASE_SIMPLIFIED_3" id="RVHilQh_lDBWktj0_1im">
        <mxGraphModel dx="1072" dy="1741" grid="1" gridSize="10" guides="1" tooltips="1" connect="1" arrows="1" fold="1" page="1" pageScale="1" pageWidth="850" pageHeight="1100" math="0" shadow="0">
            <root>
                <mxCell id="VQNTxOS4ZW09PzTnWJGV-0"/>
                <mxCell id="VQNTxOS4ZW09PzTnWJGV-1" parent="VQNTxOS4ZW09PzTnWJGV-0"/>
                <mxCell id="VQNTxOS4ZW09PzTnWJGV-2" style="rounded=0;html=1;exitX=0.5;exitY=0.5;exitDx=0;exitDy=0;exitPerimeter=0;strokeColor=none;" edge="1" parent="VQNTxOS4ZW09PzTnWJGV-1">
                    <mxGeometry relative="1" as="geometry">
                        <mxPoint x="735" y="70" as="sourcePoint"/>
                        <mxPoint x="650" y="70" as="targetPoint"/>
                    </mxGeometry>
                </mxCell>
                <mxCell id="VQNTxOS4ZW09PzTnWJGV-4" value="Perso IT&lt;br&gt;" style="shape=umlActor;verticalLabelPosition=bottom;verticalAlign=top;html=1;outlineConnect=0;" vertex="1" parent="VQNTxOS4ZW09PzTnWJGV-1">
                    <mxGeometry x="730" y="140" width="30" height="60" as="geometry"/>
                </mxCell>
                <mxCell id="VQNTxOS4ZW09PzTnWJGV-9" value="Pass output files to customers" style="ellipse;whiteSpace=wrap;html=1;" vertex="1" parent="VQNTxOS4ZW09PzTnWJGV-1">
                    <mxGeometry x="530" y="250" width="120" height="80" as="geometry"/>
                </mxCell>
                <mxCell id="VQNTxOS4ZW09PzTnWJGV-10" value="Receive multiple input files formats" style="ellipse;whiteSpace=wrap;html=1;" vertex="1" parent="VQNTxOS4ZW09PzTnWJGV-1">
                    <mxGeometry x="370" y="10" width="120" height="80" as="geometry"/>
                </mxCell>
                <mxCell id="VQNTxOS4ZW09PzTnWJGV-11" value="Validate the files" style="ellipse;whiteSpace=wrap;html=1;" vertex="1" parent="VQNTxOS4ZW09PzTnWJGV-1">
                    <mxGeometry x="365" y="370" width="120" height="80" as="geometry"/>
                </mxCell>
                <mxCell id="VQNTxOS4ZW09PzTnWJGV-12" value="Output new output files&amp;nbsp;" style="ellipse;whiteSpace=wrap;html=1;" vertex="1" parent="VQNTxOS4ZW09PzTnWJGV-1">
                    <mxGeometry x="370" y="600" width="120" height="80" as="geometry"/>
                </mxCell>
                <mxCell id="VQNTxOS4ZW09PzTnWJGV-14" value="Create log during processing" style="ellipse;whiteSpace=wrap;html=1;" vertex="1" parent="VQNTxOS4ZW09PzTnWJGV-1">
                    <mxGeometry x="370" y="720" width="120" height="80" as="geometry"/>
                </mxCell>
                <mxCell id="VQNTxOS4ZW09PzTnWJGV-18" value="" style="endArrow=none;html=1;rounded=0;exitX=1;exitY=0.5;exitDx=0;exitDy=0;" edge="1" parent="VQNTxOS4ZW09PzTnWJGV-1" source="VQNTxOS4ZW09PzTnWJGV-9" target="VQNTxOS4ZW09PzTnWJGV-4">
                    <mxGeometry width="50" height="50" relative="1" as="geometry">
                        <mxPoint x="650" y="390" as="sourcePoint"/>
                        <mxPoint x="870" y="390" as="targetPoint"/>
                    </mxGeometry>
                </mxCell>
                <mxCell id="VQNTxOS4ZW09PzTnWJGV-19" value="Pass input files to script" style="ellipse;whiteSpace=wrap;html=1;" vertex="1" parent="VQNTxOS4ZW09PzTnWJGV-1">
                    <mxGeometry x="530" y="130" width="120" height="80" as="geometry"/>
                </mxCell>
                <mxCell id="VQNTxOS4ZW09PzTnWJGV-20" value="" style="endArrow=none;html=1;rounded=0;exitX=1;exitY=0.5;exitDx=0;exitDy=0;" edge="1" parent="VQNTxOS4ZW09PzTnWJGV-1" source="VQNTxOS4ZW09PzTnWJGV-19">
                    <mxGeometry width="50" height="50" relative="1" as="geometry">
                        <mxPoint x="660" y="390" as="sourcePoint"/>
                        <mxPoint x="730" y="170" as="targetPoint"/>
                    </mxGeometry>
                </mxCell>
                <mxCell id="VQNTxOS4ZW09PzTnWJGV-23" value="User - Perso Admin&lt;br&gt;" style="shape=umlActor;verticalLabelPosition=bottom;verticalAlign=top;html=1;outlineConnect=0;" vertex="1" parent="VQNTxOS4ZW09PzTnWJGV-1">
                    <mxGeometry x="100" y="130" width="30" height="60" as="geometry"/>
                </mxCell>
                <mxCell id="VQNTxOS4ZW09PzTnWJGV-25" value="Configure grouping (Products_configuration)" style="ellipse;whiteSpace=wrap;html=1;" vertex="1" parent="VQNTxOS4ZW09PzTnWJGV-1">
                    <mxGeometry x="200" y="10" width="120" height="80" as="geometry"/>
                </mxCell>
                <mxCell id="VQNTxOS4ZW09PzTnWJGV-26" value="Configure input formats" style="ellipse;whiteSpace=wrap;html=1;" vertex="1" parent="VQNTxOS4ZW09PzTnWJGV-1">
                    <mxGeometry x="190" y="130" width="120" height="80" as="geometry"/>
                </mxCell>
                <mxCell id="VQNTxOS4ZW09PzTnWJGV-27" value="Configure output formats" style="ellipse;whiteSpace=wrap;html=1;" vertex="1" parent="VQNTxOS4ZW09PzTnWJGV-1">
                    <mxGeometry x="190" y="250" width="120" height="80" as="geometry"/>
                </mxCell>
                <mxCell id="VQNTxOS4ZW09PzTnWJGV-28" value="" style="endArrow=none;html=1;rounded=0;exitX=1;exitY=0.5;exitDx=0;exitDy=0;" edge="1" parent="VQNTxOS4ZW09PzTnWJGV-1">
                    <mxGeometry width="50" height="50" relative="1" as="geometry">
                        <mxPoint x="140" y="170" as="sourcePoint"/>
                        <mxPoint x="190" y="170" as="targetPoint"/>
                    </mxGeometry>
                </mxCell>
                <mxCell id="VQNTxOS4ZW09PzTnWJGV-29" value="" style="endArrow=none;html=1;rounded=0;entryX=-0.008;entryY=0.425;entryDx=0;entryDy=0;entryPerimeter=0;" edge="1" parent="VQNTxOS4ZW09PzTnWJGV-1" target="VQNTxOS4ZW09PzTnWJGV-25">
                    <mxGeometry width="50" height="50" relative="1" as="geometry">
                        <mxPoint x="140" y="170" as="sourcePoint"/>
                        <mxPoint x="200" y="180" as="targetPoint"/>
                    </mxGeometry>
                </mxCell>
                <mxCell id="VQNTxOS4ZW09PzTnWJGV-31" value="" style="endArrow=none;html=1;rounded=0;exitX=-0.008;exitY=0.413;exitDx=0;exitDy=0;exitPerimeter=0;" edge="1" parent="VQNTxOS4ZW09PzTnWJGV-1" source="VQNTxOS4ZW09PzTnWJGV-27">
                    <mxGeometry width="50" height="50" relative="1" as="geometry">
                        <mxPoint x="150" y="180" as="sourcePoint"/>
                        <mxPoint x="140" y="170" as="targetPoint"/>
                    </mxGeometry>
                </mxCell>
                <mxCell id="VQNTxOS4ZW09PzTnWJGV-34" value="Configure processor setup" style="ellipse;whiteSpace=wrap;html=1;" vertex="1" parent="VQNTxOS4ZW09PzTnWJGV-1">
                    <mxGeometry x="190" y="370" width="120" height="80" as="geometry"/>
                </mxCell>
                <mxCell id="VQNTxOS4ZW09PzTnWJGV-35" value="" style="endArrow=none;html=1;rounded=0;exitX=-0.008;exitY=0.363;exitDx=0;exitDy=0;exitPerimeter=0;" edge="1" parent="VQNTxOS4ZW09PzTnWJGV-1" source="VQNTxOS4ZW09PzTnWJGV-34">
                    <mxGeometry width="50" height="50" relative="1" as="geometry">
                        <mxPoint x="199.03999999999996" y="283.03999999999996" as="sourcePoint"/>
                        <mxPoint x="140" y="170" as="targetPoint"/>
                    </mxGeometry>
                </mxCell>
                <mxCell id="VQNTxOS4ZW09PzTnWJGV-40" value="Run the script" style="ellipse;whiteSpace=wrap;html=1;" vertex="1" parent="VQNTxOS4ZW09PzTnWJGV-1">
                    <mxGeometry x="530" y="10" width="120" height="80" as="geometry"/>
                </mxCell>
                <mxCell id="VQNTxOS4ZW09PzTnWJGV-41" value="" style="endArrow=none;html=1;rounded=0;entryX=0;entryY=0.3333333333333333;entryDx=0;entryDy=0;entryPerimeter=0;" edge="1" parent="VQNTxOS4ZW09PzTnWJGV-1" source="VQNTxOS4ZW09PzTnWJGV-40" target="VQNTxOS4ZW09PzTnWJGV-4">
                    <mxGeometry width="50" height="50" relative="1" as="geometry">
                        <mxPoint x="610" y="560" as="sourcePoint"/>
                        <mxPoint x="720" y="380" as="targetPoint"/>
                    </mxGeometry>
                </mxCell>
                <mxCell id="VQNTxOS4ZW09PzTnWJGV-51" value="Read files" style="ellipse;whiteSpace=wrap;html=1;" vertex="1" parent="VQNTxOS4ZW09PzTnWJGV-1">
                    <mxGeometry x="370" y="130" width="120" height="80" as="geometry"/>
                </mxCell>
                <mxCell id="VQNTxOS4ZW09PzTnWJGV-52" value="Match &amp;amp; Merge Files" style="ellipse;whiteSpace=wrap;html=1;" vertex="1" parent="VQNTxOS4ZW09PzTnWJGV-1">
                    <mxGeometry x="370" y="250" width="120" height="80" as="geometry"/>
                </mxCell>
                <mxCell id="VQNTxOS4ZW09PzTnWJGV-53" value="Group data in files" style="ellipse;whiteSpace=wrap;html=1;" vertex="1" parent="VQNTxOS4ZW09PzTnWJGV-1">
                    <mxGeometry x="370" y="480" width="120" height="80" as="geometry"/>
                </mxCell>
                <mxCell id="MvXwntfGUhQ8_h9Gcvzy-0" value="User - Perso Operator&lt;br&gt;" style="shape=umlActor;verticalLabelPosition=bottom;verticalAlign=top;html=1;outlineConnect=0;" vertex="1" parent="VQNTxOS4ZW09PzTnWJGV-1">
                    <mxGeometry x="100" y="500" width="30" height="60" as="geometry"/>
                </mxCell>
                <mxCell id="MvXwntfGUhQ8_h9Gcvzy-1" value="Use the output files" style="ellipse;whiteSpace=wrap;html=1;" vertex="1" parent="VQNTxOS4ZW09PzTnWJGV-1">
                    <mxGeometry x="190" y="480" width="120" height="80" as="geometry"/>
                </mxCell>
                <mxCell id="MvXwntfGUhQ8_h9Gcvzy-3" value="" style="endArrow=none;html=1;rounded=0;exitX=1;exitY=0.3333333333333333;exitDx=0;exitDy=0;exitPerimeter=0;entryX=0;entryY=0.5;entryDx=0;entryDy=0;" edge="1" parent="VQNTxOS4ZW09PzTnWJGV-1" source="MvXwntfGUhQ8_h9Gcvzy-0" target="MvXwntfGUhQ8_h9Gcvzy-1">
                    <mxGeometry width="50" height="50" relative="1" as="geometry">
                        <mxPoint x="189.03999999999996" y="319.03999999999996" as="sourcePoint"/>
                        <mxPoint x="180" y="450" as="targetPoint"/>
                    </mxGeometry>
                </mxCell>
                <mxCell id="MvXwntfGUhQ8_h9Gcvzy-5" value="" style="rounded=0;whiteSpace=wrap;html=1;fillColor=none;" vertex="1" parent="VQNTxOS4ZW09PzTnWJGV-1">
                    <mxGeometry x="180" y="-10" width="500" height="850" as="geometry"/>
                </mxCell>
            </root>
        </mxGraphModel>
    </diagram>
    <diagram name="USE_CASE_SIMPLIFIED_2" id="XmRP4m55_mH2sBsWrF8g">
        <mxGraphModel dx="1072" dy="641" grid="1" gridSize="10" guides="1" tooltips="1" connect="1" arrows="1" fold="1" page="1" pageScale="1" pageWidth="850" pageHeight="1100" math="0" shadow="0">
            <root>
                <mxCell id="ljF7hzJL1f5eF9H9YS0u-0"/>
                <mxCell id="ljF7hzJL1f5eF9H9YS0u-1" parent="ljF7hzJL1f5eF9H9YS0u-0"/>
                <mxCell id="ljF7hzJL1f5eF9H9YS0u-2" style="rounded=0;html=1;exitX=0.5;exitY=0.5;exitDx=0;exitDy=0;exitPerimeter=0;strokeColor=none;" edge="1" parent="ljF7hzJL1f5eF9H9YS0u-1" source="ljF7hzJL1f5eF9H9YS0u-3" target="ljF7hzJL1f5eF9H9YS0u-8">
                    <mxGeometry relative="1" as="geometry"/>
                </mxCell>
                <object label="Processor" Processor="Processor" id="ljF7hzJL1f5eF9H9YS0u-3">
                    <mxCell style="shape=umlActor;verticalLabelPosition=bottom;verticalAlign=top;html=1;outlineConnect=0;" vertex="1" parent="ljF7hzJL1f5eF9H9YS0u-1">
                        <mxGeometry x="720" y="40" width="30" height="60" as="geometry"/>
                    </mxCell>
                </object>
                <mxCell id="ljF7hzJL1f5eF9H9YS0u-4" value="Perso IT&lt;br&gt;" style="shape=umlActor;verticalLabelPosition=bottom;verticalAlign=top;html=1;outlineConnect=0;" vertex="1" parent="ljF7hzJL1f5eF9H9YS0u-1">
                    <mxGeometry x="720" y="350" width="30" height="60" as="geometry"/>
                </mxCell>
                <mxCell id="ljF7hzJL1f5eF9H9YS0u-5" style="edgeStyle=none;html=1;exitX=0.5;exitY=0.5;exitDx=0;exitDy=0;exitPerimeter=0;endArrow=block;endFill=0;" edge="1" parent="ljF7hzJL1f5eF9H9YS0u-1" source="ljF7hzJL1f5eF9H9YS0u-6" target="ljF7hzJL1f5eF9H9YS0u-3">
                    <mxGeometry relative="1" as="geometry"/>
                </mxCell>
                <mxCell id="ljF7hzJL1f5eF9H9YS0u-6" value="Issuer - Customer&lt;br&gt;" style="shape=umlActor;verticalLabelPosition=bottom;verticalAlign=top;html=1;outlineConnect=0;" vertex="1" parent="ljF7hzJL1f5eF9H9YS0u-1">
                    <mxGeometry x="720" y="140" width="30" height="60" as="geometry"/>
                </mxCell>
                <mxCell id="ljF7hzJL1f5eF9H9YS0u-7" value="User - Perso Operator&lt;br&gt;" style="shape=umlActor;verticalLabelPosition=bottom;verticalAlign=top;html=1;outlineConnect=0;" vertex="1" parent="ljF7hzJL1f5eF9H9YS0u-1">
                    <mxGeometry x="100" y="630" width="30" height="60" as="geometry"/>
                </mxCell>
                <mxCell id="ljF7hzJL1f5eF9H9YS0u-8" value="Push PGP Encrypted embossing file to SFTP" style="ellipse;whiteSpace=wrap;html=1;" vertex="1" parent="ljF7hzJL1f5eF9H9YS0u-1">
                    <mxGeometry x="530" y="30" width="120" height="80" as="geometry"/>
                </mxCell>
                <mxCell id="ljF7hzJL1f5eF9H9YS0u-9" value="Decrypts the PGP encrypted file and place it folder for SW automation" style="ellipse;whiteSpace=wrap;html=1;" vertex="1" parent="ljF7hzJL1f5eF9H9YS0u-1">
                    <mxGeometry x="530" y="340" width="120" height="80" as="geometry"/>
                </mxCell>
                <mxCell id="ljF7hzJL1f5eF9H9YS0u-10" value="Read Embossing File&amp;nbsp;" style="ellipse;whiteSpace=wrap;html=1;" vertex="1" parent="ljF7hzJL1f5eF9H9YS0u-1">
                    <mxGeometry x="370" y="30" width="120" height="80" as="geometry"/>
                </mxCell>
                <mxCell id="ljF7hzJL1f5eF9H9YS0u-11" value="Validate Data in the file" style="ellipse;whiteSpace=wrap;html=1;" vertex="1" parent="ljF7hzJL1f5eF9H9YS0u-1">
                    <mxGeometry x="370" y="140" width="120" height="80" as="geometry"/>
                </mxCell>
                <mxCell id="ljF7hzJL1f5eF9H9YS0u-12" value="Group Data base on Groupd IDs" style="ellipse;whiteSpace=wrap;html=1;" vertex="1" parent="ljF7hzJL1f5eF9H9YS0u-1">
                    <mxGeometry x="370" y="240" width="120" height="80" as="geometry"/>
                </mxCell>
                <mxCell id="ljF7hzJL1f5eF9H9YS0u-13" value="Generate Output Files Base on Configuration" style="ellipse;whiteSpace=wrap;html=1;" vertex="1" parent="ljF7hzJL1f5eF9H9YS0u-1">
                    <mxGeometry x="370" y="340" width="120" height="80" as="geometry"/>
                </mxCell>
                <mxCell id="ljF7hzJL1f5eF9H9YS0u-14" value="&amp;nbsp;Create Log of processing" style="ellipse;whiteSpace=wrap;html=1;" vertex="1" parent="ljF7hzJL1f5eF9H9YS0u-1">
                    <mxGeometry x="370" y="570" width="120" height="80" as="geometry"/>
                </mxCell>
                <mxCell id="ljF7hzJL1f5eF9H9YS0u-15" value="Pull PGP encrypted report files" style="ellipse;whiteSpace=wrap;html=1;" vertex="1" parent="ljF7hzJL1f5eF9H9YS0u-1">
                    <mxGeometry x="530" y="130" width="120" height="80" as="geometry"/>
                </mxCell>
                <mxCell id="ljF7hzJL1f5eF9H9YS0u-16" value="" style="endArrow=none;html=1;rounded=0;exitX=1;exitY=0.5;exitDx=0;exitDy=0;" edge="1" parent="ljF7hzJL1f5eF9H9YS0u-1" source="ljF7hzJL1f5eF9H9YS0u-8" target="ljF7hzJL1f5eF9H9YS0u-3">
                    <mxGeometry width="50" height="50" relative="1" as="geometry">
                        <mxPoint x="570" y="260" as="sourcePoint"/>
                        <mxPoint x="620" y="210" as="targetPoint"/>
                    </mxGeometry>
                </mxCell>
                <mxCell id="ljF7hzJL1f5eF9H9YS0u-17" value="" style="endArrow=none;html=1;rounded=0;exitX=1;exitY=0.5;exitDx=0;exitDy=0;" edge="1" parent="ljF7hzJL1f5eF9H9YS0u-1" source="ljF7hzJL1f5eF9H9YS0u-15" target="ljF7hzJL1f5eF9H9YS0u-6">
                    <mxGeometry width="50" height="50" relative="1" as="geometry">
                        <mxPoint x="690" y="149.5" as="sourcePoint"/>
                        <mxPoint x="760" y="149.5" as="targetPoint"/>
                    </mxGeometry>
                </mxCell>
                <mxCell id="ljF7hzJL1f5eF9H9YS0u-18" value="" style="endArrow=none;html=1;rounded=0;exitX=1;exitY=0.5;exitDx=0;exitDy=0;" edge="1" parent="ljF7hzJL1f5eF9H9YS0u-1" source="ljF7hzJL1f5eF9H9YS0u-9" target="ljF7hzJL1f5eF9H9YS0u-4">
                    <mxGeometry width="50" height="50" relative="1" as="geometry">
                        <mxPoint x="650" y="390" as="sourcePoint"/>
                        <mxPoint x="870" y="390" as="targetPoint"/>
                    </mxGeometry>
                </mxCell>
                <mxCell id="ljF7hzJL1f5eF9H9YS0u-19" value="Encrypts the report file using PGP and place it on processor/customer SFTP" style="ellipse;whiteSpace=wrap;html=1;" vertex="1" parent="ljF7hzJL1f5eF9H9YS0u-1">
                    <mxGeometry x="530" y="240" width="120" height="80" as="geometry"/>
                </mxCell>
                <mxCell id="ljF7hzJL1f5eF9H9YS0u-20" value="" style="endArrow=none;html=1;rounded=0;exitX=1;exitY=0.5;exitDx=0;exitDy=0;" edge="1" parent="ljF7hzJL1f5eF9H9YS0u-1" source="ljF7hzJL1f5eF9H9YS0u-19">
                    <mxGeometry width="50" height="50" relative="1" as="geometry">
                        <mxPoint x="660" y="390" as="sourcePoint"/>
                        <mxPoint x="720" y="380" as="targetPoint"/>
                    </mxGeometry>
                </mxCell>
                <mxCell id="ljF7hzJL1f5eF9H9YS0u-21" value="Review.Share&amp;nbsp;Log in case of issues" style="ellipse;whiteSpace=wrap;html=1;" vertex="1" parent="ljF7hzJL1f5eF9H9YS0u-1">
                    <mxGeometry x="530" y="440" width="120" height="80" as="geometry"/>
                </mxCell>
                <mxCell id="ljF7hzJL1f5eF9H9YS0u-22" value="" style="endArrow=none;html=1;rounded=0;exitX=1;exitY=0.5;exitDx=0;exitDy=0;" edge="1" parent="ljF7hzJL1f5eF9H9YS0u-1" source="ljF7hzJL1f5eF9H9YS0u-21">
                    <mxGeometry width="50" height="50" relative="1" as="geometry">
                        <mxPoint x="660" y="390" as="sourcePoint"/>
                        <mxPoint x="720" y="380" as="targetPoint"/>
                    </mxGeometry>
                </mxCell>
                <mxCell id="ljF7hzJL1f5eF9H9YS0u-23" value="User - Perso Admin&lt;br&gt;" style="shape=umlActor;verticalLabelPosition=bottom;verticalAlign=top;html=1;outlineConnect=0;" vertex="1" parent="ljF7hzJL1f5eF9H9YS0u-1">
                    <mxGeometry x="100" y="230" width="30" height="60" as="geometry"/>
                </mxCell>
                <mxCell id="ljF7hzJL1f5eF9H9YS0u-24" value="Print Job Ticket for Operators" style="ellipse;whiteSpace=wrap;html=1;" vertex="1" parent="ljF7hzJL1f5eF9H9YS0u-1">
                    <mxGeometry x="190" y="30" width="120" height="80" as="geometry"/>
                </mxCell>
                <mxCell id="ljF7hzJL1f5eF9H9YS0u-25" value="Configure Products configuration (customer BIN, Product ID, Shipping Options)" style="ellipse;whiteSpace=wrap;html=1;" vertex="1" parent="ljF7hzJL1f5eF9H9YS0u-1">
                    <mxGeometry x="190" y="130" width="120" height="80" as="geometry"/>
                </mxCell>
                <mxCell id="ljF7hzJL1f5eF9H9YS0u-26" value="Configure input formats" style="ellipse;whiteSpace=wrap;html=1;" vertex="1" parent="ljF7hzJL1f5eF9H9YS0u-1">
                    <mxGeometry x="190" y="240" width="120" height="80" as="geometry"/>
                </mxCell>
                <mxCell id="ljF7hzJL1f5eF9H9YS0u-27" value="Configure output formats" style="ellipse;whiteSpace=wrap;html=1;" vertex="1" parent="ljF7hzJL1f5eF9H9YS0u-1">
                    <mxGeometry x="190" y="340" width="120" height="80" as="geometry"/>
                </mxCell>
                <mxCell id="ljF7hzJL1f5eF9H9YS0u-28" value="" style="endArrow=none;html=1;rounded=0;exitX=1;exitY=0.5;exitDx=0;exitDy=0;" edge="1" parent="ljF7hzJL1f5eF9H9YS0u-1">
                    <mxGeometry width="50" height="50" relative="1" as="geometry">
                        <mxPoint x="140" y="270" as="sourcePoint"/>
                        <mxPoint x="190" y="270" as="targetPoint"/>
                    </mxGeometry>
                </mxCell>
                <mxCell id="ljF7hzJL1f5eF9H9YS0u-29" value="" style="endArrow=none;html=1;rounded=0;entryX=-0.008;entryY=0.425;entryDx=0;entryDy=0;entryPerimeter=0;" edge="1" parent="ljF7hzJL1f5eF9H9YS0u-1" target="ljF7hzJL1f5eF9H9YS0u-25">
                    <mxGeometry width="50" height="50" relative="1" as="geometry">
                        <mxPoint x="140" y="270" as="sourcePoint"/>
                        <mxPoint x="200" y="280" as="targetPoint"/>
                    </mxGeometry>
                </mxCell>
                <mxCell id="ljF7hzJL1f5eF9H9YS0u-30" value="" style="endArrow=none;html=1;rounded=0;entryX=0;entryY=0.5;entryDx=0;entryDy=0;" edge="1" parent="ljF7hzJL1f5eF9H9YS0u-1" target="ljF7hzJL1f5eF9H9YS0u-24">
                    <mxGeometry width="50" height="50" relative="1" as="geometry">
                        <mxPoint x="140" y="270" as="sourcePoint"/>
                        <mxPoint x="199.03999999999996" y="174" as="targetPoint"/>
                    </mxGeometry>
                </mxCell>
                <mxCell id="ljF7hzJL1f5eF9H9YS0u-31" value="" style="endArrow=none;html=1;rounded=0;exitX=-0.008;exitY=0.413;exitDx=0;exitDy=0;exitPerimeter=0;" edge="1" parent="ljF7hzJL1f5eF9H9YS0u-1" source="ljF7hzJL1f5eF9H9YS0u-27">
                    <mxGeometry width="50" height="50" relative="1" as="geometry">
                        <mxPoint x="150" y="280" as="sourcePoint"/>
                        <mxPoint x="140" y="270" as="targetPoint"/>
                    </mxGeometry>
                </mxCell>
                <mxCell id="ljF7hzJL1f5eF9H9YS0u-32" value="Produce cards using MRF file" style="ellipse;whiteSpace=wrap;html=1;" vertex="1" parent="ljF7hzJL1f5eF9H9YS0u-1">
                    <mxGeometry x="190" y="570" width="120" height="80" as="geometry"/>
                </mxCell>
                <mxCell id="ljF7hzJL1f5eF9H9YS0u-33" value="Produce shipping labels using mailing file" style="ellipse;whiteSpace=wrap;html=1;" vertex="1" parent="ljF7hzJL1f5eF9H9YS0u-1">
                    <mxGeometry x="190" y="670" width="120" height="80" as="geometry"/>
                </mxCell>
                <mxCell id="ljF7hzJL1f5eF9H9YS0u-34" value="Update confirmation report for manually or later in process rejection" style="ellipse;whiteSpace=wrap;html=1;" vertex="1" parent="ljF7hzJL1f5eF9H9YS0u-1">
                    <mxGeometry x="190" y="440" width="120" height="80" as="geometry"/>
                </mxCell>
                <mxCell id="ljF7hzJL1f5eF9H9YS0u-35" value="" style="endArrow=none;html=1;rounded=0;exitX=-0.008;exitY=0.363;exitDx=0;exitDy=0;exitPerimeter=0;" edge="1" parent="ljF7hzJL1f5eF9H9YS0u-1" source="ljF7hzJL1f5eF9H9YS0u-34">
                    <mxGeometry width="50" height="50" relative="1" as="geometry">
                        <mxPoint x="199.03999999999996" y="383.03999999999996" as="sourcePoint"/>
                        <mxPoint x="140" y="270" as="targetPoint"/>
                    </mxGeometry>
                </mxCell>
                <mxCell id="ljF7hzJL1f5eF9H9YS0u-36" value="" style="endArrow=none;html=1;rounded=0;exitX=1;exitY=0.3333333333333333;exitDx=0;exitDy=0;exitPerimeter=0;entryX=0;entryY=0.5;entryDx=0;entryDy=0;" edge="1" parent="ljF7hzJL1f5eF9H9YS0u-1" source="ljF7hzJL1f5eF9H9YS0u-7" target="ljF7hzJL1f5eF9H9YS0u-32">
                    <mxGeometry width="50" height="50" relative="1" as="geometry">
                        <mxPoint x="199.03999999999996" y="409.03999999999996" as="sourcePoint"/>
                        <mxPoint x="190" y="540" as="targetPoint"/>
                    </mxGeometry>
                </mxCell>
                <mxCell id="ljF7hzJL1f5eF9H9YS0u-37" value="" style="endArrow=none;html=1;rounded=0;entryX=0;entryY=0.5;entryDx=0;entryDy=0;exitX=1;exitY=0.3333333333333333;exitDx=0;exitDy=0;exitPerimeter=0;" edge="1" parent="ljF7hzJL1f5eF9H9YS0u-1" source="ljF7hzJL1f5eF9H9YS0u-7" target="ljF7hzJL1f5eF9H9YS0u-33">
                    <mxGeometry width="50" height="50" relative="1" as="geometry">
                        <mxPoint x="130" y="600" as="sourcePoint"/>
                        <mxPoint x="200" y="620" as="targetPoint"/>
                    </mxGeometry>
                </mxCell>
                <mxCell id="ljF7hzJL1f5eF9H9YS0u-38" value="Create Reports" style="ellipse;whiteSpace=wrap;html=1;" vertex="1" parent="ljF7hzJL1f5eF9H9YS0u-1">
                    <mxGeometry x="370" y="440" width="120" height="80" as="geometry"/>
                </mxCell>
                <mxCell id="ljF7hzJL1f5eF9H9YS0u-39" value="" style="endArrow=none;html=1;rounded=0;exitX=1;exitY=0.375;exitDx=0;exitDy=0;exitPerimeter=0;" edge="1" parent="ljF7hzJL1f5eF9H9YS0u-1" source="ljF7hzJL1f5eF9H9YS0u-15">
                    <mxGeometry width="50" height="50" relative="1" as="geometry">
                        <mxPoint x="660" y="80" as="sourcePoint"/>
                        <mxPoint x="720" y="70" as="targetPoint"/>
                    </mxGeometry>
                </mxCell>
                <mxCell id="ljF7hzJL1f5eF9H9YS0u-41" value="Run the script" style="ellipse;whiteSpace=wrap;html=1;" vertex="1" parent="ljF7hzJL1f5eF9H9YS0u-1">
                    <mxGeometry x="530" y="570" width="120" height="80" as="geometry"/>
                </mxCell>
                <mxCell id="ljF7hzJL1f5eF9H9YS0u-42" value="" style="endArrow=none;html=1;rounded=0;entryX=0;entryY=0.3333333333333333;entryDx=0;entryDy=0;entryPerimeter=0;" edge="1" parent="ljF7hzJL1f5eF9H9YS0u-1" source="ljF7hzJL1f5eF9H9YS0u-41" target="ljF7hzJL1f5eF9H9YS0u-4">
                    <mxGeometry width="50" height="50" relative="1" as="geometry">
                        <mxPoint x="610" y="560" as="sourcePoint"/>
                        <mxPoint x="720" y="380" as="targetPoint"/>
                    </mxGeometry>
                </mxCell>
                <mxCell id="bDqH5ownt3MVFIGk97xs-0" value="Install Software" style="ellipse;whiteSpace=wrap;html=1;" vertex="1" parent="ljF7hzJL1f5eF9H9YS0u-1">
                    <mxGeometry x="530" y="660" width="120" height="80" as="geometry"/>
                </mxCell>
                <mxCell id="bDqH5ownt3MVFIGk97xs-1" value="" style="endArrow=none;html=1;rounded=0;exitX=1;exitY=0.5;exitDx=0;exitDy=0;" edge="1" parent="ljF7hzJL1f5eF9H9YS0u-1" source="bDqH5ownt3MVFIGk97xs-0">
                    <mxGeometry width="50" height="50" relative="1" as="geometry">
                        <mxPoint x="620.378667826656" y="582.3778440123274" as="sourcePoint"/>
                        <mxPoint x="720" y="380" as="targetPoint"/>
                    </mxGeometry>
                </mxCell>
                <mxCell id="bDqH5ownt3MVFIGk97xs-3" value="Software integrator&lt;br&gt;" style="shape=umlActor;verticalLabelPosition=bottom;verticalAlign=top;html=1;outlineConnect=0;" vertex="1" parent="ljF7hzJL1f5eF9H9YS0u-1">
                    <mxGeometry x="720" y="800" width="30" height="60" as="geometry"/>
                </mxCell>
                <mxCell id="bDqH5ownt3MVFIGk97xs-4" value="Test Software and Updates" style="ellipse;whiteSpace=wrap;html=1;" vertex="1" parent="ljF7hzJL1f5eF9H9YS0u-1">
                    <mxGeometry x="530" y="780" width="120" height="80" as="geometry"/>
                </mxCell>
                <mxCell id="bDqH5ownt3MVFIGk97xs-5" value="Collects issues report issues" style="ellipse;whiteSpace=wrap;html=1;" vertex="1" parent="ljF7hzJL1f5eF9H9YS0u-1">
                    <mxGeometry x="530" y="900" width="120" height="80" as="geometry"/>
                </mxCell>
                <mxCell id="bDqH5ownt3MVFIGk97xs-6" value="" style="endArrow=none;html=1;rounded=0;exitX=1;exitY=0.5;exitDx=0;exitDy=0;entryX=0;entryY=0.3333333333333333;entryDx=0;entryDy=0;entryPerimeter=0;" edge="1" parent="ljF7hzJL1f5eF9H9YS0u-1" source="bDqH5ownt3MVFIGk97xs-4" target="bDqH5ownt3MVFIGk97xs-3">
                    <mxGeometry width="50" height="50" relative="1" as="geometry">
                        <mxPoint x="660" y="710" as="sourcePoint"/>
                        <mxPoint x="730" y="390" as="targetPoint"/>
                    </mxGeometry>
                </mxCell>
                <mxCell id="bDqH5ownt3MVFIGk97xs-7" value="" style="endArrow=none;html=1;rounded=0;exitX=1;exitY=0.4;exitDx=0;exitDy=0;exitPerimeter=0;entryX=0;entryY=0.3333333333333333;entryDx=0;entryDy=0;entryPerimeter=0;" edge="1" parent="ljF7hzJL1f5eF9H9YS0u-1" source="bDqH5ownt3MVFIGk97xs-5" target="bDqH5ownt3MVFIGk97xs-3">
                    <mxGeometry width="50" height="50" relative="1" as="geometry">
                        <mxPoint x="660" y="830" as="sourcePoint"/>
                        <mxPoint x="650" y="870" as="targetPoint"/>
                    </mxGeometry>
                </mxCell>
                <mxCell id="bDqH5ownt3MVFIGk97xs-8" value="Troubleshoot issues" style="ellipse;whiteSpace=wrap;html=1;" vertex="1" parent="ljF7hzJL1f5eF9H9YS0u-1">
                    <mxGeometry x="530" y="1010" width="120" height="80" as="geometry"/>
                </mxCell>
                <mxCell id="bDqH5ownt3MVFIGk97xs-9" value="" style="endArrow=none;html=1;rounded=0;exitX=1;exitY=0.5;exitDx=0;exitDy=0;entryX=0;entryY=0.3333333333333333;entryDx=0;entryDy=0;entryPerimeter=0;" edge="1" parent="ljF7hzJL1f5eF9H9YS0u-1" source="bDqH5ownt3MVFIGk97xs-8" target="bDqH5ownt3MVFIGk97xs-3">
                    <mxGeometry width="50" height="50" relative="1" as="geometry">
                        <mxPoint x="660" y="942" as="sourcePoint"/>
                        <mxPoint x="730" y="830" as="targetPoint"/>
                    </mxGeometry>
                </mxCell>
            </root>
        </mxGraphModel>
    </diagram>
    <diagram id="C6818lpkqtrZA9cZY6a2" name="USE_CASE_SIMPLIFIED">
        <mxGraphModel dx="1072" dy="641" grid="1" gridSize="10" guides="1" tooltips="1" connect="1" arrows="1" fold="1" page="1" pageScale="1" pageWidth="850" pageHeight="1100" math="0" shadow="0">
            <root>
                <mxCell id="CzGbZNJc_ZnBDFZoAbrj-0"/>
                <mxCell id="CzGbZNJc_ZnBDFZoAbrj-1" parent="CzGbZNJc_ZnBDFZoAbrj-0"/>
                <mxCell id="uKwKkYfzjMulyH5pcxSp-0" style="rounded=0;html=1;exitX=0.5;exitY=0.5;exitDx=0;exitDy=0;exitPerimeter=0;strokeColor=none;" parent="CzGbZNJc_ZnBDFZoAbrj-1" source="uKwKkYfzjMulyH5pcxSp-1" target="uKwKkYfzjMulyH5pcxSp-6" edge="1">
                    <mxGeometry relative="1" as="geometry"/>
                </mxCell>
                <object label="Processor" Processor="Processor" id="uKwKkYfzjMulyH5pcxSp-1">
                    <mxCell style="shape=umlActor;verticalLabelPosition=bottom;verticalAlign=top;html=1;outlineConnect=0;" parent="CzGbZNJc_ZnBDFZoAbrj-1" vertex="1">
                        <mxGeometry x="720" y="40" width="30" height="60" as="geometry"/>
                    </mxCell>
                </object>
                <mxCell id="uKwKkYfzjMulyH5pcxSp-2" value="Perso IT&lt;br&gt;" style="shape=umlActor;verticalLabelPosition=bottom;verticalAlign=top;html=1;outlineConnect=0;" parent="CzGbZNJc_ZnBDFZoAbrj-1" vertex="1">
                    <mxGeometry x="720" y="350" width="30" height="60" as="geometry"/>
                </mxCell>
                <mxCell id="uKwKkYfzjMulyH5pcxSp-3" style="edgeStyle=none;html=1;exitX=0.5;exitY=0.5;exitDx=0;exitDy=0;exitPerimeter=0;endArrow=block;endFill=0;" parent="CzGbZNJc_ZnBDFZoAbrj-1" source="uKwKkYfzjMulyH5pcxSp-4" target="uKwKkYfzjMulyH5pcxSp-1" edge="1">
                    <mxGeometry relative="1" as="geometry"/>
                </mxCell>
                <mxCell id="uKwKkYfzjMulyH5pcxSp-4" value="Issuer - Customer&lt;br&gt;" style="shape=umlActor;verticalLabelPosition=bottom;verticalAlign=top;html=1;outlineConnect=0;" parent="CzGbZNJc_ZnBDFZoAbrj-1" vertex="1">
                    <mxGeometry x="720" y="140" width="30" height="60" as="geometry"/>
                </mxCell>
                <mxCell id="uKwKkYfzjMulyH5pcxSp-5" value="User - Perso Operator&lt;br&gt;" style="shape=umlActor;verticalLabelPosition=bottom;verticalAlign=top;html=1;outlineConnect=0;" parent="CzGbZNJc_ZnBDFZoAbrj-1" vertex="1">
                    <mxGeometry x="100" y="620" width="30" height="60" as="geometry"/>
                </mxCell>
                <mxCell id="uKwKkYfzjMulyH5pcxSp-6" value="Push PGP Encrypted embossing file to SFTP" style="ellipse;whiteSpace=wrap;html=1;" parent="CzGbZNJc_ZnBDFZoAbrj-1" vertex="1">
                    <mxGeometry x="530" y="30" width="120" height="80" as="geometry"/>
                </mxCell>
                <mxCell id="uKwKkYfzjMulyH5pcxSp-7" value="Decrypts the PGP encrypted file and place it folder for SW automation" style="ellipse;whiteSpace=wrap;html=1;" parent="CzGbZNJc_ZnBDFZoAbrj-1" vertex="1">
                    <mxGeometry x="530" y="340" width="120" height="80" as="geometry"/>
                </mxCell>
                <mxCell id="uKwKkYfzjMulyH5pcxSp-8" value="Read Embossing File&amp;nbsp;" style="ellipse;whiteSpace=wrap;html=1;" parent="CzGbZNJc_ZnBDFZoAbrj-1" vertex="1">
                    <mxGeometry x="370" y="30" width="120" height="80" as="geometry"/>
                </mxCell>
                <mxCell id="uKwKkYfzjMulyH5pcxSp-9" value="Validate Data in the file" style="ellipse;whiteSpace=wrap;html=1;" parent="CzGbZNJc_ZnBDFZoAbrj-1" vertex="1">
                    <mxGeometry x="370" y="140" width="120" height="80" as="geometry"/>
                </mxCell>
                <mxCell id="uKwKkYfzjMulyH5pcxSp-10" value="Group Data base on Groupd IDs" style="ellipse;whiteSpace=wrap;html=1;" parent="CzGbZNJc_ZnBDFZoAbrj-1" vertex="1">
                    <mxGeometry x="370" y="240" width="120" height="80" as="geometry"/>
                </mxCell>
                <mxCell id="uKwKkYfzjMulyH5pcxSp-11" value="Generate Output Files Base on Configuration" style="ellipse;whiteSpace=wrap;html=1;" parent="CzGbZNJc_ZnBDFZoAbrj-1" vertex="1">
                    <mxGeometry x="370" y="340" width="120" height="80" as="geometry"/>
                </mxCell>
                <mxCell id="uKwKkYfzjMulyH5pcxSp-16" value="&amp;nbsp;Create Log of processing" style="ellipse;whiteSpace=wrap;html=1;" parent="CzGbZNJc_ZnBDFZoAbrj-1" vertex="1">
                    <mxGeometry x="370" y="570" width="120" height="80" as="geometry"/>
                </mxCell>
                <mxCell id="uKwKkYfzjMulyH5pcxSp-28" value="Pull PGP encrypted report files" style="ellipse;whiteSpace=wrap;html=1;" parent="CzGbZNJc_ZnBDFZoAbrj-1" vertex="1">
                    <mxGeometry x="530" y="130" width="120" height="80" as="geometry"/>
                </mxCell>
                <mxCell id="uKwKkYfzjMulyH5pcxSp-29" value="" style="endArrow=none;html=1;rounded=0;exitX=1;exitY=0.5;exitDx=0;exitDy=0;" parent="CzGbZNJc_ZnBDFZoAbrj-1" source="uKwKkYfzjMulyH5pcxSp-6" target="uKwKkYfzjMulyH5pcxSp-1" edge="1">
                    <mxGeometry width="50" height="50" relative="1" as="geometry">
                        <mxPoint x="570" y="260" as="sourcePoint"/>
                        <mxPoint x="620" y="210" as="targetPoint"/>
                    </mxGeometry>
                </mxCell>
                <mxCell id="uKwKkYfzjMulyH5pcxSp-30" value="" style="endArrow=none;html=1;rounded=0;exitX=1;exitY=0.5;exitDx=0;exitDy=0;" parent="CzGbZNJc_ZnBDFZoAbrj-1" source="uKwKkYfzjMulyH5pcxSp-28" target="uKwKkYfzjMulyH5pcxSp-4" edge="1">
                    <mxGeometry width="50" height="50" relative="1" as="geometry">
                        <mxPoint x="690" y="149.5" as="sourcePoint"/>
                        <mxPoint x="760" y="149.5" as="targetPoint"/>
                    </mxGeometry>
                </mxCell>
                <mxCell id="uKwKkYfzjMulyH5pcxSp-31" value="" style="endArrow=none;html=1;rounded=0;exitX=1;exitY=0.5;exitDx=0;exitDy=0;" parent="CzGbZNJc_ZnBDFZoAbrj-1" source="uKwKkYfzjMulyH5pcxSp-7" target="uKwKkYfzjMulyH5pcxSp-2" edge="1">
                    <mxGeometry width="50" height="50" relative="1" as="geometry">
                        <mxPoint x="650" y="390" as="sourcePoint"/>
                        <mxPoint x="870" y="390" as="targetPoint"/>
                    </mxGeometry>
                </mxCell>
                <mxCell id="uKwKkYfzjMulyH5pcxSp-33" value="Encrypts the report file using PGP and place it on processor/customer SFTP" style="ellipse;whiteSpace=wrap;html=1;" parent="CzGbZNJc_ZnBDFZoAbrj-1" vertex="1">
                    <mxGeometry x="530" y="240" width="120" height="80" as="geometry"/>
                </mxCell>
                <mxCell id="uKwKkYfzjMulyH5pcxSp-34" value="" style="endArrow=none;html=1;rounded=0;exitX=1;exitY=0.5;exitDx=0;exitDy=0;" parent="CzGbZNJc_ZnBDFZoAbrj-1" source="uKwKkYfzjMulyH5pcxSp-33" edge="1">
                    <mxGeometry width="50" height="50" relative="1" as="geometry">
                        <mxPoint x="660" y="390" as="sourcePoint"/>
                        <mxPoint x="720" y="380" as="targetPoint"/>
                    </mxGeometry>
                </mxCell>
                <mxCell id="uKwKkYfzjMulyH5pcxSp-35" value="Review.Share&amp;nbsp;Log in case of issues" style="ellipse;whiteSpace=wrap;html=1;" parent="CzGbZNJc_ZnBDFZoAbrj-1" vertex="1">
                    <mxGeometry x="530" y="440" width="120" height="80" as="geometry"/>
                </mxCell>
                <mxCell id="uKwKkYfzjMulyH5pcxSp-36" value="" style="endArrow=none;html=1;rounded=0;exitX=1;exitY=0.5;exitDx=0;exitDy=0;" parent="CzGbZNJc_ZnBDFZoAbrj-1" source="uKwKkYfzjMulyH5pcxSp-35" edge="1">
                    <mxGeometry width="50" height="50" relative="1" as="geometry">
                        <mxPoint x="660" y="390" as="sourcePoint"/>
                        <mxPoint x="720" y="380" as="targetPoint"/>
                    </mxGeometry>
                </mxCell>
                <mxCell id="uKwKkYfzjMulyH5pcxSp-37" value="User - Perso Admin&lt;br&gt;" style="shape=umlActor;verticalLabelPosition=bottom;verticalAlign=top;html=1;outlineConnect=0;" parent="CzGbZNJc_ZnBDFZoAbrj-1" vertex="1">
                    <mxGeometry x="100" y="230" width="30" height="60" as="geometry"/>
                </mxCell>
                <mxCell id="uKwKkYfzjMulyH5pcxSp-38" value="Print Job Ticket for Operators" style="ellipse;whiteSpace=wrap;html=1;" parent="CzGbZNJc_ZnBDFZoAbrj-1" vertex="1">
                    <mxGeometry x="190" y="30" width="120" height="80" as="geometry"/>
                </mxCell>
                <mxCell id="uKwKkYfzjMulyH5pcxSp-39" value="Configure Products configuration (customer BIN, Product ID, Shipping Options)" style="ellipse;whiteSpace=wrap;html=1;" parent="CzGbZNJc_ZnBDFZoAbrj-1" vertex="1">
                    <mxGeometry x="190" y="130" width="120" height="80" as="geometry"/>
                </mxCell>
                <mxCell id="uKwKkYfzjMulyH5pcxSp-40" value="Configure input formats" style="ellipse;whiteSpace=wrap;html=1;" parent="CzGbZNJc_ZnBDFZoAbrj-1" vertex="1">
                    <mxGeometry x="190" y="240" width="120" height="80" as="geometry"/>
                </mxCell>
                <mxCell id="uKwKkYfzjMulyH5pcxSp-41" value="Configure output formats" style="ellipse;whiteSpace=wrap;html=1;" parent="CzGbZNJc_ZnBDFZoAbrj-1" vertex="1">
                    <mxGeometry x="190" y="340" width="120" height="80" as="geometry"/>
                </mxCell>
                <mxCell id="uKwKkYfzjMulyH5pcxSp-42" value="" style="endArrow=none;html=1;rounded=0;exitX=1;exitY=0.5;exitDx=0;exitDy=0;" parent="CzGbZNJc_ZnBDFZoAbrj-1" edge="1">
                    <mxGeometry width="50" height="50" relative="1" as="geometry">
                        <mxPoint x="140" y="270" as="sourcePoint"/>
                        <mxPoint x="190" y="270" as="targetPoint"/>
                    </mxGeometry>
                </mxCell>
                <mxCell id="uKwKkYfzjMulyH5pcxSp-43" value="" style="endArrow=none;html=1;rounded=0;entryX=-0.008;entryY=0.425;entryDx=0;entryDy=0;entryPerimeter=0;" parent="CzGbZNJc_ZnBDFZoAbrj-1" target="uKwKkYfzjMulyH5pcxSp-39" edge="1">
                    <mxGeometry width="50" height="50" relative="1" as="geometry">
                        <mxPoint x="140" y="270" as="sourcePoint"/>
                        <mxPoint x="200" y="280" as="targetPoint"/>
                    </mxGeometry>
                </mxCell>
                <mxCell id="uKwKkYfzjMulyH5pcxSp-44" value="" style="endArrow=none;html=1;rounded=0;entryX=0;entryY=0.5;entryDx=0;entryDy=0;" parent="CzGbZNJc_ZnBDFZoAbrj-1" target="uKwKkYfzjMulyH5pcxSp-38" edge="1">
                    <mxGeometry width="50" height="50" relative="1" as="geometry">
                        <mxPoint x="140" y="270" as="sourcePoint"/>
                        <mxPoint x="199.03999999999996" y="174" as="targetPoint"/>
                    </mxGeometry>
                </mxCell>
                <mxCell id="uKwKkYfzjMulyH5pcxSp-45" value="" style="endArrow=none;html=1;rounded=0;exitX=-0.008;exitY=0.413;exitDx=0;exitDy=0;exitPerimeter=0;" parent="CzGbZNJc_ZnBDFZoAbrj-1" source="uKwKkYfzjMulyH5pcxSp-41" edge="1">
                    <mxGeometry width="50" height="50" relative="1" as="geometry">
                        <mxPoint x="150" y="280" as="sourcePoint"/>
                        <mxPoint x="140" y="270" as="targetPoint"/>
                    </mxGeometry>
                </mxCell>
                <mxCell id="uKwKkYfzjMulyH5pcxSp-46" value="Produce cards using MRF file" style="ellipse;whiteSpace=wrap;html=1;" parent="CzGbZNJc_ZnBDFZoAbrj-1" vertex="1">
                    <mxGeometry x="190" y="560" width="120" height="80" as="geometry"/>
                </mxCell>
                <mxCell id="uKwKkYfzjMulyH5pcxSp-47" value="Produce shipping labels using mailing file" style="ellipse;whiteSpace=wrap;html=1;" parent="CzGbZNJc_ZnBDFZoAbrj-1" vertex="1">
                    <mxGeometry x="190" y="660" width="120" height="80" as="geometry"/>
                </mxCell>
                <mxCell id="uKwKkYfzjMulyH5pcxSp-48" value="Update confirmation report for manually or later in process rejection" style="ellipse;whiteSpace=wrap;html=1;" parent="CzGbZNJc_ZnBDFZoAbrj-1" vertex="1">
                    <mxGeometry x="190" y="440" width="120" height="80" as="geometry"/>
                </mxCell>
                <mxCell id="uKwKkYfzjMulyH5pcxSp-49" value="" style="endArrow=none;html=1;rounded=0;exitX=-0.008;exitY=0.363;exitDx=0;exitDy=0;exitPerimeter=0;" parent="CzGbZNJc_ZnBDFZoAbrj-1" source="uKwKkYfzjMulyH5pcxSp-48" edge="1">
                    <mxGeometry width="50" height="50" relative="1" as="geometry">
                        <mxPoint x="199.03999999999996" y="383.03999999999996" as="sourcePoint"/>
                        <mxPoint x="140" y="270" as="targetPoint"/>
                    </mxGeometry>
                </mxCell>
                <mxCell id="uKwKkYfzjMulyH5pcxSp-50" value="" style="endArrow=none;html=1;rounded=0;exitX=1;exitY=0.3333333333333333;exitDx=0;exitDy=0;exitPerimeter=0;entryX=0;entryY=0.5;entryDx=0;entryDy=0;" parent="CzGbZNJc_ZnBDFZoAbrj-1" source="uKwKkYfzjMulyH5pcxSp-5" target="uKwKkYfzjMulyH5pcxSp-46" edge="1">
                    <mxGeometry width="50" height="50" relative="1" as="geometry">
                        <mxPoint x="199.03999999999996" y="399.03999999999996" as="sourcePoint"/>
                        <mxPoint x="190" y="530" as="targetPoint"/>
                    </mxGeometry>
                </mxCell>
                <mxCell id="uKwKkYfzjMulyH5pcxSp-51" value="" style="endArrow=none;html=1;rounded=0;entryX=0;entryY=0.5;entryDx=0;entryDy=0;exitX=1;exitY=0.3333333333333333;exitDx=0;exitDy=0;exitPerimeter=0;" parent="CzGbZNJc_ZnBDFZoAbrj-1" source="uKwKkYfzjMulyH5pcxSp-5" target="uKwKkYfzjMulyH5pcxSp-47" edge="1">
                    <mxGeometry width="50" height="50" relative="1" as="geometry">
                        <mxPoint x="130" y="590" as="sourcePoint"/>
                        <mxPoint x="200" y="610" as="targetPoint"/>
                    </mxGeometry>
                </mxCell>
                <mxCell id="uKwKkYfzjMulyH5pcxSp-63" value="Create Reports" style="ellipse;whiteSpace=wrap;html=1;" parent="CzGbZNJc_ZnBDFZoAbrj-1" vertex="1">
                    <mxGeometry x="370" y="440" width="120" height="80" as="geometry"/>
                </mxCell>
                <mxCell id="uKwKkYfzjMulyH5pcxSp-64" value="" style="endArrow=none;html=1;rounded=0;exitX=1;exitY=0.375;exitDx=0;exitDy=0;exitPerimeter=0;" parent="CzGbZNJc_ZnBDFZoAbrj-1" source="uKwKkYfzjMulyH5pcxSp-28" edge="1">
                    <mxGeometry width="50" height="50" relative="1" as="geometry">
                        <mxPoint x="660" y="80" as="sourcePoint"/>
                        <mxPoint x="720" y="70" as="targetPoint"/>
                    </mxGeometry>
                </mxCell>
                <mxCell id="uKwKkYfzjMulyH5pcxSp-65" value="/" style="rounded=0;whiteSpace=wrap;html=1;fillColor=none;" parent="CzGbZNJc_ZnBDFZoAbrj-1" vertex="1">
                    <mxGeometry x="170" y="20" width="510" height="730" as="geometry"/>
                </mxCell>
                <mxCell id="uKwKkYfzjMulyH5pcxSp-67" value="Run the script" style="ellipse;whiteSpace=wrap;html=1;" parent="CzGbZNJc_ZnBDFZoAbrj-1" vertex="1">
                    <mxGeometry x="530" y="570" width="120" height="80" as="geometry"/>
                </mxCell>
                <mxCell id="uKwKkYfzjMulyH5pcxSp-70" value="" style="endArrow=none;html=1;rounded=0;entryX=0;entryY=0.3333333333333333;entryDx=0;entryDy=0;entryPerimeter=0;" parent="CzGbZNJc_ZnBDFZoAbrj-1" source="uKwKkYfzjMulyH5pcxSp-67" target="uKwKkYfzjMulyH5pcxSp-2" edge="1">
                    <mxGeometry width="50" height="50" relative="1" as="geometry">
                        <mxPoint x="660" y="490" as="sourcePoint"/>
                        <mxPoint x="720" y="380" as="targetPoint"/>
                    </mxGeometry>
                </mxCell>
            </root>
        </mxGraphModel>
    </diagram>
    <diagram id="73jm9XK02O-fyXG6295m" name="USE_CASE_BROAD">
        <mxGraphModel dx="1072" dy="641" grid="1" gridSize="10" guides="1" tooltips="1" connect="1" arrows="1" fold="1" page="1" pageScale="1" pageWidth="850" pageHeight="1100" math="0" shadow="0">
            <root>
                <mxCell id="0"/>
                <mxCell id="1" parent="0"/>
                <mxCell id="58" style="rounded=0;html=1;exitX=0.5;exitY=0.5;exitDx=0;exitDy=0;exitPerimeter=0;strokeColor=none;" parent="1" source="16" target="23" edge="1">
                    <mxGeometry relative="1" as="geometry"/>
                </mxCell>
                <object label="Processor" Processor="Processor" id="16">
                    <mxCell style="shape=umlActor;verticalLabelPosition=bottom;verticalAlign=top;html=1;outlineConnect=0;" parent="1" vertex="1">
                        <mxGeometry x="760" y="40" width="30" height="60" as="geometry"/>
                    </mxCell>
                </object>
                <mxCell id="17" value="Perso IT&lt;br&gt;" style="shape=umlActor;verticalLabelPosition=bottom;verticalAlign=top;html=1;outlineConnect=0;" parent="1" vertex="1">
                    <mxGeometry x="760" y="350" width="30" height="60" as="geometry"/>
                </mxCell>
                <mxCell id="25" style="edgeStyle=none;html=1;exitX=0.5;exitY=0.5;exitDx=0;exitDy=0;exitPerimeter=0;endArrow=block;endFill=0;" parent="1" source="18" target="16" edge="1">
                    <mxGeometry relative="1" as="geometry"/>
                </mxCell>
                <mxCell id="18" value="Issuer - Customer&lt;br&gt;" style="shape=umlActor;verticalLabelPosition=bottom;verticalAlign=top;html=1;outlineConnect=0;" parent="1" vertex="1">
                    <mxGeometry x="760" y="140" width="30" height="60" as="geometry"/>
                </mxCell>
                <mxCell id="19" value="User - Perso Operator&lt;br&gt;" style="shape=umlActor;verticalLabelPosition=bottom;verticalAlign=top;html=1;outlineConnect=0;" parent="1" vertex="1">
                    <mxGeometry x="50" y="700" width="30" height="60" as="geometry"/>
                </mxCell>
                <mxCell id="23" value="Push PGP Encrypted embossing file to SFTP" style="ellipse;whiteSpace=wrap;html=1;" parent="1" vertex="1">
                    <mxGeometry x="570" y="30" width="120" height="80" as="geometry"/>
                </mxCell>
                <mxCell id="24" value="Decrypts the PGP encrypted file and place it folder for SW automation" style="ellipse;whiteSpace=wrap;html=1;" parent="1" vertex="1">
                    <mxGeometry x="570" y="340" width="120" height="80" as="geometry"/>
                </mxCell>
                <mxCell id="28" value="Recognize the Processer file format by folder/filename" style="ellipse;whiteSpace=wrap;html=1;" parent="1" vertex="1">
                    <mxGeometry x="420" y="30" width="120" height="80" as="geometry"/>
                </mxCell>
                <mxCell id="29" value="Read the file using configured file format and identify customer by BIN number" style="ellipse;whiteSpace=wrap;html=1;" parent="1" vertex="1">
                    <mxGeometry x="420" y="130" width="120" height="80" as="geometry"/>
                </mxCell>
                <mxCell id="30" value="Identify Product Type by Product ID" style="ellipse;whiteSpace=wrap;html=1;" parent="1" vertex="1">
                    <mxGeometry x="420" y="240" width="120" height="80" as="geometry"/>
                </mxCell>
                <mxCell id="31" value="Identify card stock or mailer by additional card stock or mailer ID" style="ellipse;whiteSpace=wrap;html=1;" parent="1" vertex="1">
                    <mxGeometry x="420" y="340" width="120" height="80" as="geometry"/>
                </mxCell>
                <mxCell id="36" value="Validate the data by predefinec configuration" style="ellipse;whiteSpace=wrap;html=1;" parent="1" vertex="1">
                    <mxGeometry x="420" y="540" width="120" height="80" as="geometry"/>
                </mxCell>
                <mxCell id="39" value="Generate Output Data on predefined configuration - DataPrep" style="ellipse;whiteSpace=wrap;html=1;" parent="1" vertex="1">
                    <mxGeometry x="280" y="130" width="120" height="80" as="geometry"/>
                </mxCell>
                <mxCell id="40" value="Generate Output Data on predefined configuration - FEDEX Mailing file" style="ellipse;whiteSpace=wrap;html=1;" parent="1" vertex="1">
                    <mxGeometry x="280" y="340" width="120" height="80" as="geometry"/>
                </mxCell>
                <mxCell id="41" value="Generate Output Data on predefined configuration - Confirmation Report" style="ellipse;whiteSpace=wrap;html=1;" parent="1" vertex="1">
                    <mxGeometry x="280" y="740" width="120" height="80" as="geometry"/>
                </mxCell>
                <mxCell id="42" value="&amp;nbsp;Create Log of processing" style="ellipse;whiteSpace=wrap;html=1;" parent="1" vertex="1">
                    <mxGeometry x="420" y="850" width="120" height="80" as="geometry"/>
                </mxCell>
                <mxCell id="43" value="Generate Output Data on predefined configuration - Generate Job Ticket" style="ellipse;whiteSpace=wrap;html=1;" parent="1" vertex="1">
                    <mxGeometry x="280" y="30" width="120" height="80" as="geometry"/>
                </mxCell>
                <mxCell id="101" style="edgeStyle=orthogonalEdgeStyle;rounded=0;html=1;exitX=0.5;exitY=1;exitDx=0;exitDy=0;entryX=0.5;entryY=0;entryDx=0;entryDy=0;dashed=1;endArrow=none;endFill=0;" parent="1" source="46" target="52" edge="1">
                    <mxGeometry relative="1" as="geometry"/>
                </mxCell>
                <mxCell id="46" value="Validate the data by cleansing address API" style="ellipse;whiteSpace=wrap;html=1;" parent="1" vertex="1">
                    <mxGeometry x="420" y="640" width="120" height="80" as="geometry"/>
                </mxCell>
                <mxCell id="47" value="Generate Output Data on predefined configuration - DHL Mailing file" style="ellipse;whiteSpace=wrap;html=1;" parent="1" vertex="1">
                    <mxGeometry x="280" y="440" width="120" height="80" as="geometry"/>
                </mxCell>
                <mxCell id="48" value="Generate Output Data on predefined configuration - Shipsi Mailing file" style="ellipse;whiteSpace=wrap;html=1;" parent="1" vertex="1">
                    <mxGeometry x="280" y="540" width="120" height="80" as="geometry"/>
                </mxCell>
                <mxCell id="49" value="Generate Output Data on predefined configuration - IMB using API" style="ellipse;whiteSpace=wrap;html=1;" parent="1" vertex="1">
                    <mxGeometry x="280" y="640" width="120" height="80" as="geometry"/>
                </mxCell>
                <mxCell id="50" value="Generate Output Data on predefined configuration - Bad Data&amp;nbsp;Report" style="ellipse;whiteSpace=wrap;html=1;" parent="1" vertex="1">
                    <mxGeometry x="280" y="840" width="120" height="80" as="geometry"/>
                </mxCell>
                <mxCell id="51" value="Generate Output Data on predefined configuration - Shipment report having tracking number" style="ellipse;whiteSpace=wrap;html=1;" parent="1" vertex="1">
                    <mxGeometry x="280" y="940" width="120" height="80" as="geometry"/>
                </mxCell>
                <mxCell id="52" value="Split/Group Data by Customer, Product ID,, CardStock/Carrier ID, Shipping Option additionally Bulk&lt;br&gt;" style="ellipse;whiteSpace=wrap;html=1;" parent="1" vertex="1">
                    <mxGeometry x="420" y="740" width="120" height="80" as="geometry"/>
                </mxCell>
                <mxCell id="53" value="Identify Shipping Options" style="ellipse;whiteSpace=wrap;html=1;" parent="1" vertex="1">
                    <mxGeometry x="420" y="440" width="120" height="80" as="geometry"/>
                </mxCell>
                <mxCell id="54" value="Generate MRF" style="ellipse;whiteSpace=wrap;html=1;" parent="1" vertex="1">
                    <mxGeometry x="280" y="240" width="120" height="80" as="geometry"/>
                </mxCell>
                <mxCell id="55" value="Pull PGP encrypted report files" style="ellipse;whiteSpace=wrap;html=1;" parent="1" vertex="1">
                    <mxGeometry x="570" y="130" width="120" height="80" as="geometry"/>
                </mxCell>
                <mxCell id="62" value="" style="endArrow=none;html=1;rounded=0;exitX=1;exitY=0.5;exitDx=0;exitDy=0;" parent="1" source="23" target="16" edge="1">
                    <mxGeometry width="50" height="50" relative="1" as="geometry">
                        <mxPoint x="610" y="260" as="sourcePoint"/>
                        <mxPoint x="660" y="210" as="targetPoint"/>
                    </mxGeometry>
                </mxCell>
                <mxCell id="63" value="" style="endArrow=none;html=1;rounded=0;exitX=1;exitY=0.5;exitDx=0;exitDy=0;" parent="1" source="55" target="18" edge="1">
                    <mxGeometry width="50" height="50" relative="1" as="geometry">
                        <mxPoint x="730" y="149.5" as="sourcePoint"/>
                        <mxPoint x="800" y="149.5" as="targetPoint"/>
                    </mxGeometry>
                </mxCell>
                <mxCell id="64" value="" style="endArrow=none;html=1;rounded=0;exitX=1;exitY=0.5;exitDx=0;exitDy=0;" parent="1" source="24" target="17" edge="1">
                    <mxGeometry width="50" height="50" relative="1" as="geometry">
                        <mxPoint x="690" y="390" as="sourcePoint"/>
                        <mxPoint x="910" y="390" as="targetPoint"/>
                    </mxGeometry>
                </mxCell>
                <mxCell id="72" style="edgeStyle=orthogonalEdgeStyle;rounded=0;html=1;exitX=0;exitY=0.5;exitDx=0;exitDy=0;entryX=1;entryY=0.5;entryDx=0;entryDy=0;endArrow=none;endFill=0;dashed=1;" parent="1" source="65" target="28" edge="1">
                    <mxGeometry relative="1" as="geometry"/>
                </mxCell>
                <mxCell id="65" value="Encrypts the report file using PGP and place it on processor/customer SFTP" style="ellipse;whiteSpace=wrap;html=1;" parent="1" vertex="1">
                    <mxGeometry x="570" y="240" width="120" height="80" as="geometry"/>
                </mxCell>
                <mxCell id="66" value="" style="endArrow=none;html=1;rounded=0;exitX=1;exitY=0.5;exitDx=0;exitDy=0;" parent="1" source="65" edge="1">
                    <mxGeometry width="50" height="50" relative="1" as="geometry">
                        <mxPoint x="700" y="390" as="sourcePoint"/>
                        <mxPoint x="760" y="380" as="targetPoint"/>
                    </mxGeometry>
                </mxCell>
                <mxCell id="67" value="Review Log in case of issues" style="ellipse;whiteSpace=wrap;html=1;" parent="1" vertex="1">
                    <mxGeometry x="570" y="440" width="120" height="80" as="geometry"/>
                </mxCell>
                <mxCell id="68" value="" style="endArrow=none;html=1;rounded=0;exitX=1;exitY=0.5;exitDx=0;exitDy=0;" parent="1" source="67" edge="1">
                    <mxGeometry width="50" height="50" relative="1" as="geometry">
                        <mxPoint x="700" y="390" as="sourcePoint"/>
                        <mxPoint x="760" y="380" as="targetPoint"/>
                    </mxGeometry>
                </mxCell>
                <mxCell id="73" value="User - Perso Admin&lt;br&gt;" style="shape=umlActor;verticalLabelPosition=bottom;verticalAlign=top;html=1;outlineConnect=0;" parent="1" vertex="1">
                    <mxGeometry x="50" y="230" width="30" height="60" as="geometry"/>
                </mxCell>
                <mxCell id="75" value="Print Job Ticket for Operators" style="ellipse;whiteSpace=wrap;html=1;" parent="1" vertex="1">
                    <mxGeometry x="140" y="30" width="120" height="80" as="geometry"/>
                </mxCell>
                <mxCell id="76" value="Configure Products configuration (customer BIN, Product ID, Shipping Options)" style="ellipse;whiteSpace=wrap;html=1;" parent="1" vertex="1">
                    <mxGeometry x="140" y="130" width="120" height="80" as="geometry"/>
                </mxCell>
                <mxCell id="77" value="Configure input formats" style="ellipse;whiteSpace=wrap;html=1;" parent="1" vertex="1">
                    <mxGeometry x="140" y="240" width="120" height="80" as="geometry"/>
                </mxCell>
                <mxCell id="78" value="Configure output formats" style="ellipse;whiteSpace=wrap;html=1;" parent="1" vertex="1">
                    <mxGeometry x="140" y="340" width="120" height="80" as="geometry"/>
                </mxCell>
                <mxCell id="79" value="" style="endArrow=none;html=1;rounded=0;exitX=1;exitY=0.5;exitDx=0;exitDy=0;" parent="1" edge="1">
                    <mxGeometry width="50" height="50" relative="1" as="geometry">
                        <mxPoint x="90" y="270" as="sourcePoint"/>
                        <mxPoint x="140" y="270" as="targetPoint"/>
                    </mxGeometry>
                </mxCell>
                <mxCell id="80" value="" style="endArrow=none;html=1;rounded=0;entryX=-0.008;entryY=0.425;entryDx=0;entryDy=0;entryPerimeter=0;" parent="1" target="76" edge="1">
                    <mxGeometry width="50" height="50" relative="1" as="geometry">
                        <mxPoint x="90" y="270" as="sourcePoint"/>
                        <mxPoint x="150" y="280" as="targetPoint"/>
                    </mxGeometry>
                </mxCell>
                <mxCell id="81" value="" style="endArrow=none;html=1;rounded=0;entryX=0;entryY=0.5;entryDx=0;entryDy=0;" parent="1" target="75" edge="1">
                    <mxGeometry width="50" height="50" relative="1" as="geometry">
                        <mxPoint x="90" y="270" as="sourcePoint"/>
                        <mxPoint x="149.03999999999996" y="174" as="targetPoint"/>
                    </mxGeometry>
                </mxCell>
                <mxCell id="82" value="" style="endArrow=none;html=1;rounded=0;exitX=-0.008;exitY=0.413;exitDx=0;exitDy=0;exitPerimeter=0;" parent="1" source="78" edge="1">
                    <mxGeometry width="50" height="50" relative="1" as="geometry">
                        <mxPoint x="100" y="280" as="sourcePoint"/>
                        <mxPoint x="90" y="270" as="targetPoint"/>
                    </mxGeometry>
                </mxCell>
                <mxCell id="83" value="Produce cards using MRF file" style="ellipse;whiteSpace=wrap;html=1;" parent="1" vertex="1">
                    <mxGeometry x="140" y="640" width="120" height="80" as="geometry"/>
                </mxCell>
                <mxCell id="84" value="Produce shipping labels using mailing file" style="ellipse;whiteSpace=wrap;html=1;" parent="1" vertex="1">
                    <mxGeometry x="140" y="740" width="120" height="80" as="geometry"/>
                </mxCell>
                <mxCell id="85" value="Update confirmation report for manually or later in process rejection" style="ellipse;whiteSpace=wrap;html=1;" parent="1" vertex="1">
                    <mxGeometry x="140" y="440" width="120" height="80" as="geometry"/>
                </mxCell>
                <mxCell id="86" value="" style="endArrow=none;html=1;rounded=0;exitX=-0.008;exitY=0.363;exitDx=0;exitDy=0;exitPerimeter=0;" parent="1" source="85" edge="1">
                    <mxGeometry width="50" height="50" relative="1" as="geometry">
                        <mxPoint x="149.03999999999996" y="383.03999999999996" as="sourcePoint"/>
                        <mxPoint x="90" y="270" as="targetPoint"/>
                    </mxGeometry>
                </mxCell>
                <mxCell id="87" value="" style="endArrow=none;html=1;rounded=0;exitX=1;exitY=0.3333333333333333;exitDx=0;exitDy=0;exitPerimeter=0;entryX=0;entryY=0.5;entryDx=0;entryDy=0;" parent="1" source="19" target="83" edge="1">
                    <mxGeometry width="50" height="50" relative="1" as="geometry">
                        <mxPoint x="149.03999999999996" y="479.03999999999996" as="sourcePoint"/>
                        <mxPoint x="140" y="610" as="targetPoint"/>
                    </mxGeometry>
                </mxCell>
                <mxCell id="88" value="" style="endArrow=none;html=1;rounded=0;entryX=0;entryY=0.5;entryDx=0;entryDy=0;exitX=1;exitY=0.3333333333333333;exitDx=0;exitDy=0;exitPerimeter=0;" parent="1" source="19" target="84" edge="1">
                    <mxGeometry width="50" height="50" relative="1" as="geometry">
                        <mxPoint x="80" y="670" as="sourcePoint"/>
                        <mxPoint x="150" y="690" as="targetPoint"/>
                    </mxGeometry>
                </mxCell>
                <mxCell id="90" value="" style="endArrow=none;dashed=1;html=1;dashPattern=1 3;strokeWidth=2;rounded=0;entryX=0.5;entryY=1;entryDx=0;entryDy=0;" parent="1" target="28" edge="1">
                    <mxGeometry width="50" height="50" relative="1" as="geometry">
                        <mxPoint x="480" y="130" as="sourcePoint"/>
                        <mxPoint x="510" y="240" as="targetPoint"/>
                    </mxGeometry>
                </mxCell>
                <mxCell id="92" value="" style="endArrow=none;dashed=1;html=1;dashPattern=1 3;strokeWidth=2;rounded=0;entryX=0.5;entryY=1;entryDx=0;entryDy=0;exitX=0.5;exitY=0;exitDx=0;exitDy=0;" parent="1" source="30" target="29" edge="1">
                    <mxGeometry width="50" height="50" relative="1" as="geometry">
                        <mxPoint x="460" y="290" as="sourcePoint"/>
                        <mxPoint x="510" y="240" as="targetPoint"/>
                    </mxGeometry>
                </mxCell>
                <mxCell id="94" value="" style="endArrow=none;dashed=1;html=1;dashPattern=1 3;strokeWidth=2;rounded=0;exitX=0.5;exitY=0;exitDx=0;exitDy=0;entryX=0.5;entryY=1;entryDx=0;entryDy=0;" parent="1" source="31" target="30" edge="1">
                    <mxGeometry width="50" height="50" relative="1" as="geometry">
                        <mxPoint x="460" y="290" as="sourcePoint"/>
                        <mxPoint x="510" y="240" as="targetPoint"/>
                    </mxGeometry>
                </mxCell>
                <mxCell id="95" value="" style="endArrow=none;dashed=1;html=1;dashPattern=1 3;strokeWidth=2;rounded=0;entryX=0.5;entryY=1;entryDx=0;entryDy=0;exitX=0.5;exitY=0;exitDx=0;exitDy=0;" parent="1" source="53" target="31" edge="1">
                    <mxGeometry width="50" height="50" relative="1" as="geometry">
                        <mxPoint x="460" y="480" as="sourcePoint"/>
                        <mxPoint x="510" y="430" as="targetPoint"/>
                    </mxGeometry>
                </mxCell>
                <mxCell id="98" value="" style="endArrow=none;dashed=1;html=1;dashPattern=1 3;strokeWidth=2;rounded=0;entryX=0.5;entryY=1;entryDx=0;entryDy=0;exitX=0.5;exitY=0;exitDx=0;exitDy=0;" parent="1" source="36" target="53" edge="1">
                    <mxGeometry width="50" height="50" relative="1" as="geometry">
                        <mxPoint x="460" y="600" as="sourcePoint"/>
                        <mxPoint x="510" y="550" as="targetPoint"/>
                    </mxGeometry>
                </mxCell>
                <mxCell id="99" value="" style="endArrow=none;dashed=1;html=1;dashPattern=1 3;strokeWidth=2;rounded=0;entryX=0.5;entryY=1;entryDx=0;entryDy=0;exitX=0.5;exitY=0;exitDx=0;exitDy=0;" parent="1" source="46" target="36" edge="1">
                    <mxGeometry width="50" height="50" relative="1" as="geometry">
                        <mxPoint x="460" y="600" as="sourcePoint"/>
                        <mxPoint x="510" y="550" as="targetPoint"/>
                    </mxGeometry>
                </mxCell>
                <mxCell id="100" value="" style="endArrow=none;dashed=1;html=1;dashPattern=1 3;strokeWidth=2;rounded=0;" parent="1" edge="1">
                    <mxGeometry width="50" height="50" relative="1" as="geometry">
                        <mxPoint x="460" y="600" as="sourcePoint"/>
                        <mxPoint x="510" y="550" as="targetPoint"/>
                    </mxGeometry>
                </mxCell>
                <mxCell id="102" value="" style="endArrow=none;dashed=1;html=1;dashPattern=1 3;strokeWidth=2;rounded=0;exitX=1;exitY=0.5;exitDx=0;exitDy=0;entryX=0;entryY=0.5;entryDx=0;entryDy=0;edgeStyle=orthogonalEdgeStyle;" parent="1" source="41" target="46" edge="1">
                    <mxGeometry width="50" height="50" relative="1" as="geometry">
                        <mxPoint x="460" y="600" as="sourcePoint"/>
                        <mxPoint x="510" y="550" as="targetPoint"/>
                    </mxGeometry>
                </mxCell>
                <mxCell id="103" value="" style="endArrow=none;dashed=1;html=1;dashPattern=1 3;strokeWidth=2;rounded=0;exitX=0.958;exitY=0.275;exitDx=0;exitDy=0;entryX=0;entryY=0.5;entryDx=0;entryDy=0;edgeStyle=orthogonalEdgeStyle;exitPerimeter=0;" parent="1" source="50" target="46" edge="1">
                    <mxGeometry width="50" height="50" relative="1" as="geometry">
                        <mxPoint x="410" y="790" as="sourcePoint"/>
                        <mxPoint x="430" y="690" as="targetPoint"/>
                    </mxGeometry>
                </mxCell>
                <mxCell id="106" value="" style="rounded=0;whiteSpace=wrap;html=1;fillColor=none;" parent="1" vertex="1">
                    <mxGeometry x="120" y="20" width="620" height="1030" as="geometry"/>
                </mxCell>
            </root>
        </mxGraphModel>
    </diagram>
</mxfile>